<mxfile host="app.diagrams.net" modified="2024-03-11T11:34:26.498Z" agent="Mozilla/5.0 (Windows NT 10.0; Win64; x64) AppleWebKit/537.36 (KHTML, like Gecko) Chrome/122.0.0.0 Safari/537.36" etag="GCn4bHsIKKiqZhjFAwNH" version="24.0.4" type="github">
  <diagram name="Page-1" id="zZg3e-FcOIeZiFrXn7Xp">
    <mxGraphModel dx="2317" dy="780" grid="1" gridSize="10" guides="1" tooltips="1" connect="1" arrows="1" fold="1" page="1" pageScale="1" pageWidth="850" pageHeight="1100" math="0" shadow="0">
      <root>
        <mxCell id="0" />
        <mxCell id="1" parent="0" />
        <mxCell id="dAfgAvByTWpaN4ClfMxR-1" value="task" style="swimlane;fontStyle=0;childLayout=stackLayout;horizontal=1;startSize=30;horizontalStack=0;resizeParent=1;resizeParentMax=0;resizeLast=0;collapsible=1;marginBottom=0;whiteSpace=wrap;html=1;" vertex="1" parent="1">
          <mxGeometry x="-60" y="100" width="300" height="210" as="geometry">
            <mxRectangle x="350" y="190" width="60" height="30" as="alternateBounds" />
          </mxGeometry>
        </mxCell>
        <mxCell id="dAfgAvByTWpaN4ClfMxR-2" value="taskId* (primary key)" style="text;strokeColor=none;fillColor=none;align=left;verticalAlign=middle;spacingLeft=4;spacingRight=4;overflow=hidden;points=[[0,0.5],[1,0.5]];portConstraint=eastwest;rotatable=0;whiteSpace=wrap;html=1;" vertex="1" parent="dAfgAvByTWpaN4ClfMxR-1">
          <mxGeometry y="30" width="300" height="30" as="geometry" />
        </mxCell>
        <mxCell id="dAfgAvByTWpaN4ClfMxR-4" value="taskTitle*&lt;span style=&quot;background-color: initial;&quot;&gt;&amp;nbsp;(not optional)&lt;/span&gt;" style="text;strokeColor=none;fillColor=none;align=left;verticalAlign=middle;spacingLeft=4;spacingRight=4;overflow=hidden;points=[[0,0.5],[1,0.5]];portConstraint=eastwest;rotatable=0;whiteSpace=wrap;html=1;" vertex="1" parent="dAfgAvByTWpaN4ClfMxR-1">
          <mxGeometry y="60" width="300" height="30" as="geometry" />
        </mxCell>
        <mxCell id="dAfgAvByTWpaN4ClfMxR-5" value="taskStatus* (not editable on creation, editable afterward, default = not done)" style="text;strokeColor=none;fillColor=none;align=left;verticalAlign=middle;spacingLeft=4;spacingRight=4;overflow=hidden;points=[[0,0.5],[1,0.5]];portConstraint=eastwest;rotatable=0;whiteSpace=wrap;html=1;" vertex="1" parent="dAfgAvByTWpaN4ClfMxR-1">
          <mxGeometry y="90" width="300" height="30" as="geometry" />
        </mxCell>
        <mxCell id="dAfgAvByTWpaN4ClfMxR-6" value="taskDescription (optional)" style="text;strokeColor=none;fillColor=none;align=left;verticalAlign=middle;spacingLeft=4;spacingRight=4;overflow=hidden;points=[[0,0.5],[1,0.5]];portConstraint=eastwest;rotatable=0;whiteSpace=wrap;html=1;" vertex="1" parent="dAfgAvByTWpaN4ClfMxR-1">
          <mxGeometry y="120" width="300" height="30" as="geometry" />
        </mxCell>
        <mxCell id="dAfgAvByTWpaN4ClfMxR-7" value="taskCreationData* (not editable, create on instance)" style="text;strokeColor=none;fillColor=none;align=left;verticalAlign=middle;spacingLeft=4;spacingRight=4;overflow=hidden;points=[[0,0.5],[1,0.5]];portConstraint=eastwest;rotatable=0;whiteSpace=wrap;html=1;" vertex="1" parent="dAfgAvByTWpaN4ClfMxR-1">
          <mxGeometry y="150" width="300" height="30" as="geometry" />
        </mxCell>
        <mxCell id="dAfgAvByTWpaN4ClfMxR-8" value="taskDueData (optional, default = null)" style="text;strokeColor=none;fillColor=none;align=left;verticalAlign=middle;spacingLeft=4;spacingRight=4;overflow=hidden;points=[[0,0.5],[1,0.5]];portConstraint=eastwest;rotatable=0;whiteSpace=wrap;html=1;" vertex="1" parent="dAfgAvByTWpaN4ClfMxR-1">
          <mxGeometry y="180" width="300" height="30" as="geometry" />
        </mxCell>
        <mxCell id="dAfgAvByTWpaN4ClfMxR-12" value="options" style="swimlane;fontStyle=0;childLayout=stackLayout;horizontal=1;startSize=30;horizontalStack=0;resizeParent=1;resizeParentMax=0;resizeLast=0;collapsible=1;marginBottom=0;whiteSpace=wrap;html=1;" vertex="1" parent="1">
          <mxGeometry x="-230" y="145" width="140" height="120" as="geometry" />
        </mxCell>
        <mxCell id="dAfgAvByTWpaN4ClfMxR-13" value="not done (default)" style="text;strokeColor=none;fillColor=none;align=left;verticalAlign=middle;spacingLeft=4;spacingRight=4;overflow=hidden;points=[[0,0.5],[1,0.5]];portConstraint=eastwest;rotatable=0;whiteSpace=wrap;html=1;" vertex="1" parent="dAfgAvByTWpaN4ClfMxR-12">
          <mxGeometry y="30" width="140" height="30" as="geometry" />
        </mxCell>
        <mxCell id="dAfgAvByTWpaN4ClfMxR-14" value="doing" style="text;strokeColor=none;fillColor=none;align=left;verticalAlign=middle;spacingLeft=4;spacingRight=4;overflow=hidden;points=[[0,0.5],[1,0.5]];portConstraint=eastwest;rotatable=0;whiteSpace=wrap;html=1;" vertex="1" parent="dAfgAvByTWpaN4ClfMxR-12">
          <mxGeometry y="60" width="140" height="30" as="geometry" />
        </mxCell>
        <mxCell id="dAfgAvByTWpaN4ClfMxR-15" value="done" style="text;strokeColor=none;fillColor=none;align=left;verticalAlign=middle;spacingLeft=4;spacingRight=4;overflow=hidden;points=[[0,0.5],[1,0.5]];portConstraint=eastwest;rotatable=0;whiteSpace=wrap;html=1;" vertex="1" parent="dAfgAvByTWpaN4ClfMxR-12">
          <mxGeometry y="90" width="140" height="30" as="geometry" />
        </mxCell>
        <mxCell id="dAfgAvByTWpaN4ClfMxR-10" style="edgeStyle=orthogonalEdgeStyle;rounded=0;orthogonalLoop=1;jettySize=auto;html=1;" edge="1" parent="1" source="dAfgAvByTWpaN4ClfMxR-5" target="dAfgAvByTWpaN4ClfMxR-12">
          <mxGeometry relative="1" as="geometry">
            <mxPoint x="-160" y="205" as="targetPoint" />
          </mxGeometry>
        </mxCell>
        <mxCell id="dAfgAvByTWpaN4ClfMxR-19" value="YYYY-MM-DD" style="rounded=0;whiteSpace=wrap;html=1;" vertex="1" parent="1">
          <mxGeometry x="290" y="235" width="120" height="60" as="geometry" />
        </mxCell>
        <mxCell id="dAfgAvByTWpaN4ClfMxR-18" style="edgeStyle=orthogonalEdgeStyle;rounded=0;orthogonalLoop=1;jettySize=auto;html=1;" edge="1" parent="1" source="dAfgAvByTWpaN4ClfMxR-7" target="dAfgAvByTWpaN4ClfMxR-19">
          <mxGeometry relative="1" as="geometry">
            <mxPoint x="310" y="265" as="targetPoint" />
          </mxGeometry>
        </mxCell>
        <mxCell id="dAfgAvByTWpaN4ClfMxR-20" style="edgeStyle=orthogonalEdgeStyle;rounded=0;orthogonalLoop=1;jettySize=auto;html=1;entryX=0;entryY=0.5;entryDx=0;entryDy=0;" edge="1" parent="1" source="dAfgAvByTWpaN4ClfMxR-8" target="dAfgAvByTWpaN4ClfMxR-19">
          <mxGeometry relative="1" as="geometry" />
        </mxCell>
        <mxCell id="dAfgAvByTWpaN4ClfMxR-21" value="Database schema" style="text;html=1;align=center;verticalAlign=middle;whiteSpace=wrap;rounded=0;" vertex="1" parent="1">
          <mxGeometry x="60" y="30" width="60" height="30" as="geometry" />
        </mxCell>
        <mxCell id="dAfgAvByTWpaN4ClfMxR-22" value="endpoints schema" style="text;html=1;align=center;verticalAlign=middle;whiteSpace=wrap;rounded=0;" vertex="1" parent="1">
          <mxGeometry x="50" y="370" width="60" height="30" as="geometry" />
        </mxCell>
        <mxCell id="dAfgAvByTWpaN4ClfMxR-23" value="get" style="swimlane;fontStyle=0;childLayout=stackLayout;horizontal=1;startSize=30;horizontalStack=0;resizeParent=1;resizeParentMax=0;resizeLast=0;collapsible=1;marginBottom=0;whiteSpace=wrap;html=1;" vertex="1" parent="1">
          <mxGeometry x="-250" y="420" width="140" height="90" as="geometry" />
        </mxCell>
        <mxCell id="dAfgAvByTWpaN4ClfMxR-24" value="/task/{taskId}" style="text;strokeColor=none;fillColor=none;align=left;verticalAlign=middle;spacingLeft=4;spacingRight=4;overflow=hidden;points=[[0,0.5],[1,0.5]];portConstraint=eastwest;rotatable=0;whiteSpace=wrap;html=1;" vertex="1" parent="dAfgAvByTWpaN4ClfMxR-23">
          <mxGeometry y="30" width="140" height="30" as="geometry" />
        </mxCell>
        <mxCell id="dAfgAvByTWpaN4ClfMxR-25" value="/task" style="text;strokeColor=none;fillColor=none;align=left;verticalAlign=middle;spacingLeft=4;spacingRight=4;overflow=hidden;points=[[0,0.5],[1,0.5]];portConstraint=eastwest;rotatable=0;whiteSpace=wrap;html=1;" vertex="1" parent="dAfgAvByTWpaN4ClfMxR-23">
          <mxGeometry y="60" width="140" height="30" as="geometry" />
        </mxCell>
        <mxCell id="dAfgAvByTWpaN4ClfMxR-28" value="query" style="swimlane;fontStyle=0;childLayout=stackLayout;horizontal=1;startSize=30;horizontalStack=0;resizeParent=1;resizeParentMax=0;resizeLast=0;collapsible=1;marginBottom=0;whiteSpace=wrap;html=1;" vertex="1" parent="1">
          <mxGeometry x="-430" y="490" width="140" height="150" as="geometry" />
        </mxCell>
        <mxCell id="dAfgAvByTWpaN4ClfMxR-29" value="status" style="text;strokeColor=none;fillColor=none;align=left;verticalAlign=middle;spacingLeft=4;spacingRight=4;overflow=hidden;points=[[0,0.5],[1,0.5]];portConstraint=eastwest;rotatable=0;whiteSpace=wrap;html=1;" vertex="1" parent="dAfgAvByTWpaN4ClfMxR-28">
          <mxGeometry y="30" width="140" height="30" as="geometry" />
        </mxCell>
        <mxCell id="dAfgAvByTWpaN4ClfMxR-30" value="dueDate" style="text;strokeColor=none;fillColor=none;align=left;verticalAlign=middle;spacingLeft=4;spacingRight=4;overflow=hidden;points=[[0,0.5],[1,0.5]];portConstraint=eastwest;rotatable=0;whiteSpace=wrap;html=1;" vertex="1" parent="dAfgAvByTWpaN4ClfMxR-28">
          <mxGeometry y="60" width="140" height="30" as="geometry" />
        </mxCell>
        <mxCell id="dAfgAvByTWpaN4ClfMxR-31" value="creationDate" style="text;strokeColor=none;fillColor=none;align=left;verticalAlign=middle;spacingLeft=4;spacingRight=4;overflow=hidden;points=[[0,0.5],[1,0.5]];portConstraint=eastwest;rotatable=0;whiteSpace=wrap;html=1;" vertex="1" parent="dAfgAvByTWpaN4ClfMxR-28">
          <mxGeometry y="90" width="140" height="30" as="geometry" />
        </mxCell>
        <mxCell id="dAfgAvByTWpaN4ClfMxR-32" value="title" style="text;strokeColor=none;fillColor=none;align=left;verticalAlign=middle;spacingLeft=4;spacingRight=4;overflow=hidden;points=[[0,0.5],[1,0.5]];portConstraint=eastwest;rotatable=0;whiteSpace=wrap;html=1;" vertex="1" parent="dAfgAvByTWpaN4ClfMxR-28">
          <mxGeometry y="120" width="140" height="30" as="geometry" />
        </mxCell>
        <mxCell id="dAfgAvByTWpaN4ClfMxR-27" style="edgeStyle=orthogonalEdgeStyle;rounded=0;orthogonalLoop=1;jettySize=auto;html=1;" edge="1" parent="1" source="dAfgAvByTWpaN4ClfMxR-25" target="dAfgAvByTWpaN4ClfMxR-28">
          <mxGeometry relative="1" as="geometry">
            <mxPoint x="-360" y="550" as="targetPoint" />
          </mxGeometry>
        </mxCell>
        <mxCell id="dAfgAvByTWpaN4ClfMxR-33" value="post" style="swimlane;fontStyle=0;childLayout=stackLayout;horizontal=1;startSize=30;horizontalStack=0;resizeParent=1;resizeParentMax=0;resizeLast=0;collapsible=1;marginBottom=0;whiteSpace=wrap;html=1;" vertex="1" parent="1">
          <mxGeometry x="-90" y="420" width="140" height="60" as="geometry" />
        </mxCell>
        <mxCell id="dAfgAvByTWpaN4ClfMxR-34" value="/task" style="text;strokeColor=none;fillColor=none;align=left;verticalAlign=middle;spacingLeft=4;spacingRight=4;overflow=hidden;points=[[0,0.5],[1,0.5]];portConstraint=eastwest;rotatable=0;whiteSpace=wrap;html=1;" vertex="1" parent="dAfgAvByTWpaN4ClfMxR-33">
          <mxGeometry y="30" width="140" height="30" as="geometry" />
        </mxCell>
        <mxCell id="dAfgAvByTWpaN4ClfMxR-37" value="put" style="swimlane;fontStyle=0;childLayout=stackLayout;horizontal=1;startSize=30;horizontalStack=0;resizeParent=1;resizeParentMax=0;resizeLast=0;collapsible=1;marginBottom=0;whiteSpace=wrap;html=1;" vertex="1" parent="1">
          <mxGeometry x="70" y="420" width="140" height="60" as="geometry" />
        </mxCell>
        <mxCell id="dAfgAvByTWpaN4ClfMxR-38" value="/task/{taskId}" style="text;strokeColor=none;fillColor=none;align=left;verticalAlign=middle;spacingLeft=4;spacingRight=4;overflow=hidden;points=[[0,0.5],[1,0.5]];portConstraint=eastwest;rotatable=0;whiteSpace=wrap;html=1;" vertex="1" parent="dAfgAvByTWpaN4ClfMxR-37">
          <mxGeometry y="30" width="140" height="30" as="geometry" />
        </mxCell>
        <mxCell id="dAfgAvByTWpaN4ClfMxR-39" value="delete" style="swimlane;fontStyle=0;childLayout=stackLayout;horizontal=1;startSize=30;horizontalStack=0;resizeParent=1;resizeParentMax=0;resizeLast=0;collapsible=1;marginBottom=0;whiteSpace=wrap;html=1;" vertex="1" parent="1">
          <mxGeometry x="230" y="420" width="140" height="60" as="geometry" />
        </mxCell>
        <mxCell id="dAfgAvByTWpaN4ClfMxR-40" value="/task/{taskId}" style="text;strokeColor=none;fillColor=none;align=left;verticalAlign=middle;spacingLeft=4;spacingRight=4;overflow=hidden;points=[[0,0.5],[1,0.5]];portConstraint=eastwest;rotatable=0;whiteSpace=wrap;html=1;" vertex="1" parent="dAfgAvByTWpaN4ClfMxR-39">
          <mxGeometry y="30" width="140" height="30" as="geometry" />
        </mxCell>
        <mxCell id="dAfgAvByTWpaN4ClfMxR-44" style="edgeStyle=orthogonalEdgeStyle;rounded=0;orthogonalLoop=1;jettySize=auto;html=1;" edge="1" parent="1" source="dAfgAvByTWpaN4ClfMxR-43" target="dAfgAvByTWpaN4ClfMxR-45">
          <mxGeometry relative="1" as="geometry">
            <mxPoint x="-240" y="750" as="targetPoint" />
          </mxGeometry>
        </mxCell>
        <mxCell id="dAfgAvByTWpaN4ClfMxR-49" value="" style="edgeStyle=orthogonalEdgeStyle;rounded=0;orthogonalLoop=1;jettySize=auto;html=1;" edge="1" parent="1" source="dAfgAvByTWpaN4ClfMxR-43" target="dAfgAvByTWpaN4ClfMxR-48">
          <mxGeometry relative="1" as="geometry" />
        </mxCell>
        <mxCell id="dAfgAvByTWpaN4ClfMxR-54" value="" style="edgeStyle=orthogonalEdgeStyle;rounded=0;orthogonalLoop=1;jettySize=auto;html=1;" edge="1" parent="1" source="dAfgAvByTWpaN4ClfMxR-43" target="dAfgAvByTWpaN4ClfMxR-53">
          <mxGeometry relative="1" as="geometry" />
        </mxCell>
        <mxCell id="dAfgAvByTWpaN4ClfMxR-58" value="" style="edgeStyle=orthogonalEdgeStyle;rounded=0;orthogonalLoop=1;jettySize=auto;html=1;" edge="1" parent="1" source="dAfgAvByTWpaN4ClfMxR-43" target="dAfgAvByTWpaN4ClfMxR-57">
          <mxGeometry relative="1" as="geometry" />
        </mxCell>
        <mxCell id="dAfgAvByTWpaN4ClfMxR-43" value="objects&lt;div&gt;Schema&lt;/div&gt;" style="text;html=1;align=center;verticalAlign=middle;whiteSpace=wrap;rounded=0;" vertex="1" parent="1">
          <mxGeometry x="50" y="670" width="60" height="30" as="geometry" />
        </mxCell>
        <mxCell id="dAfgAvByTWpaN4ClfMxR-47" style="edgeStyle=orthogonalEdgeStyle;rounded=0;orthogonalLoop=1;jettySize=auto;html=1;" edge="1" parent="1" source="dAfgAvByTWpaN4ClfMxR-45" target="dAfgAvByTWpaN4ClfMxR-46">
          <mxGeometry relative="1" as="geometry" />
        </mxCell>
        <mxCell id="dAfgAvByTWpaN4ClfMxR-45" value="get single item" style="rounded=0;whiteSpace=wrap;html=1;" vertex="1" parent="1">
          <mxGeometry x="-300" y="720" width="120" height="60" as="geometry" />
        </mxCell>
        <mxCell id="dAfgAvByTWpaN4ClfMxR-46" value="" style="shape=image;verticalLabelPosition=bottom;labelBackgroundColor=default;verticalAlign=top;aspect=fixed;imageAspect=0;image=data:image/png,iVBORw0KGgoAAAANSUhEUgAAANsAAAClCAYAAADVq4jxAAAAAXNSR0IArs4c6QAAAARnQU1BAACxjwv8YQUAAAAJcEhZcwAADsMAAA7DAcdvqGQAABXaSURBVHhe7Z1dbFTV2scfNMaWVvsRRKhYW2xAa6o9HJGI4kt4UY4hGS8khHNlvNDEc2HCzRvizcm5MebcmHiBiV6cYEwgBi7OJI0gBD2CGIRwemxAMbUtA2eEWvshLdQr3/Wsvdfea+2PmT2dmdU90/8v2WH25+yS/Z9nrWc/H8s6Ozt/p5Tx++/RtxS3nVm2bJn7ySRuOwC2KVtsjzzyiPupPJSQvv/+e/lvd3c3Pf7443T33XfL9VL47bff6Ntvv6XR0VG5DsGBNHCH+++iooSmW66FCo3h8/h8RSGLCIAtUiG2ICyOhQpNwefrIoPgwGJTHbG19tH2TIYyme3U1+puA2CJUwWxtVDfk91Eo/+ibPYEDU27m4vAlkctlQQWDaSFqojtnuW36MbVGXe9MFFiqJRAIDSQJjxv5J49e0h8lhvjyOVydOjQIXfNIeyN7KTNmXV088tkVk0Jgv/l5fLly/Jfvh/Fiy++SKtWrXLXorl+/Tp9+umn7poD3yt7InVvJDyTYLHwLNsddxQ3cnfddZf7qTrEWaIkArnzzjvdT2HirguATTyFffbZZzQxMeGuheF9QcsRSWsLLadbNJNwrpaEM2fO0PR0/AV53+nTp901ANKJJzYWUzabjRRcoX0+PHzMUOZJonPZM5Rzt1YCFtPnn38eKbhC+wBIE8bYMUpUyYTG5OiMOC57nmhjZrOQXmWJEhWEBmqJ0ERNiYsdDvl8PqHQNKZnxCByObVU4f2aEtcvv/xC4+PjEBqoKSK9Iiyujz76iD7++OPShGYBFhf/AAwMDEBooKaIFBsAoPJUQWwzdPPWcrqnxV0tgWq9A8O7NZAGqiK2ofOjtPyJ8mIjOU2mHKLOh+jAYpKKfDYVPcILR5AwXV1d1N/fv+B8tsHBQRobG5PrSmQQG1hMUiM29a8K19K3KfTPQXQh6eKK2g7AYpCaTG0QRmWtg/oA3kgALAGxAWCJGhHbXtq6/yjt/vs71OZuiWTTO7Rz/wfU7a5Wi/7HeumdnRvozUrHpIG6BpbNMjs3baC/PtbgroGlRI2I7V364i9/ok/+bx9NuVsWk8GLl2jfwAV6r5KpDaDuSb03su2Nw/R8X7Ozcu0YffL2u85nxa4PaPc2fTyXo3N/eZ2cipFJ4NSgflrx8yBlvy6mnlZ6c+da6pCf5+ny6Uv0D636Aw8vX6IROt/cS1tWONvyQ44oed+ergiLNjFC+85Gx3jCG1lfpN6yTb2/iz4RVu340Ky7RYPnaNvaafiAsHps+Q4M0py7qzpM03vCou0bGKG8uyVIY1cvPTnrWL5DY/PU0bOK+sV2ZQ1PTRDdHnM+yyVGaKD+qOk5W/f/isd46CBdOOtuWBBuHl5Rq5YQYan+dnFefhy8Nkm3G5fTA3INLHXgIAHAEhAbAJaoabFNT81SU/dG993bXtr6Sj81yc+l4NZOedrOS7P/zs5T4/2tch4HlhYpF9vLtOHvR2n3/qOOR3LNDvl591t75d6p9w/SsHhsn+dt+5+hXw8co3G5p0p0rpUvs9+RHskGWv8sf+6lV0vI3Ru8OEKXxdl75HXEsgn12ZcKCEROMXD91xeYswFgCYgNAEtAbABYAmIDwBJwkCwh4HBZXGDZALAExAaAJepCbJyGwy+7t+5yNyREnae/KAegWtSE2LrfOko733jZXSsRzneLKadQMH0nNTTQq9tQgqEeqAvLpkTzxWF3AwApJNXeSCNLW8fL2OZCQDtopdw4S8MHdvm5bZxYGhmYHM7klt/T9lU4C9y4PtHc0Ic08P4Rdy2elr7t9D/dRKOJ+oqz5eql9Y3uKk3TqYERGhCfuF6JyvjW4eRTmTPXsor++uxyOj8wSQ+rDPLbeTp08joNyiNN4I1cXGrC9c/DyN6pQg86i4IDkTWxKXgY+dQkHS9QvyRabBwE/RqtHlXf6wiPTha3oKWITZZLaM4XyNh2xHjPcETNEym2Dmr0SjQ4ZRvILcUQBGJbXOCNjGPTRlot7MMZT+Dv0n/E3G7luuKOlJmhE5TNJrFqLivaaaf7cSHkh1QtlGn6cUL8eNyD6l1pBGKL48F2ampW6TvOEjmkLROuTXJqopW2uCk3pZe5EwLTrNjA2QteWQaQLiC2QswO0nEuJKQvoXld+bBAnAJAIzTV1Yu6knVKTYjNzMgukauTNNfcQ92b3PWkHP6OxoVl27yAVw48Z1tYb7p5unnb/egxT+NzRB2rkWRa69RIbKTjrOhRozjljQzVjGQCXkmB6dVU3sjANRVGbUrTG8mMV9RBEvRECiLrSOr1KqO8kY73shhwkCwuCEReQkBsiwvmbABYAmIDwBIQGwCWgNgAsAQcJCD11ItjB5YNAEtAbABYoubEVlYiaRXg+9m9/zBtKDVCJQEqk7zUDHSQTmDZFg2nj0E9Cwn9w00gtjIZfZsDlCPy6CoAMtDrixrwRoZjGI2MaSM+slhcZERsYyC+0r+28733fvMnurLuKG1cw3u16xuZ4MHsbz73z0RHvqJ7X1Gxlf4xPPR0rmfif3eBDHQX8xr6MXzuo3TlwCT1qvvj7IUEzf9LyzAP9wlP3j/cT4j9cbXKRg/3KFfUizcy9WKTDxX5wcG87mVtywe+h35SD5oUDvkPvtzfTpcCZRA85PHckzv8MOsiVyII3osk8jvUub4Iwuf6Yo63XNEZ6PIHpHvYE5DzgzLp/t1KqErcznqlM8yTBEHzMJL7i4fz6/wAbBVULUtAUHQzf7j+bSAe5N414qHRH26Ntg09Zk/tw8doeLaTHjLmQcF1hXjYn+oUQirSk/vaMc+Kjv4gfrZb70+c6jN+0hdJqefGs5eeEJZ6/BvfUsk+dcbfzSJX4n+XrlwjarqvuFOp5AxzaqWHy6n6pfUfH/hJfGlTQ103iazpOVtrWzM19b3mZVLv3h9ImTm7jwZO5mjlNne/UdKuk+5lq/WzOxyNYfwHTeiHX6dPEgzHYmluF49nJZilX6+6HxeLmev0N6HKjj63qeO2VSULJc8CU+SEVYspVFQv1LyDhId4RiZ10KHAAnG3n5vup+c9weXoV9vlImcnKbHRKEgz3fug+1Hi/HBYhwUiM8wv0Km5DtqzAMEtJdIttrM3aE4bBvLcRHcs8NCsqe/Pid9xcca3zxEaHZ0VVu8DEtOUKiPmTdvEkHX0nGYVj9CUUF6SAkImzrBw5VO+lW574xlaOTtI/ynTa7nwDHOnV3gQ9A83Sb83UvcWivnT8alnaDMd9OZRQW+i7vULeiL1fYrgMVHeyCjHQvjajLq+71xR+NfVUc4MB++Y0N/EmF5J0xup/11hp4rhVCpAKQ6SsMfRr3fpE8hEj/BGRpXcCwJvpAsCkaNI4mkESYE3EgBQEhAbAJbAMBKkHgwjAQAlAcsGrFAv1qkcYNkAsATEBoAlILalDkfvc2zjJvQSqDa1LzZOcdm/8JArjq5IU5mFitO5dkFBwqDywLItdTh6n4OJYzufgkpRA97IYJyhigM04wp9zBhCM4bR3xcd2ygw+nUXjjEMXiNJhxuO0N+c6acVPw9S9usEgYFeK18XvcsNW63Vk3RotsOLUzQ73GjneUT37PbO04jLxGZ430s0Quebe71r6PuDwBtZA2KTD3Rkc3mXQtnYYt/WDefoC10cWoYzEx+kW0Rshb63IKWILdgj21lvU8JgsXGIvhKgFFg75fTyAnxMz63YpvZMZEa1vDb5wcVyvcErXaCEqEQq1+8Xwkfz/FhqYxi55tGFzcnO7vOExkxdGKa5iiVwMnFZ4IXI0ZlsNpFV63+sgzpu5+lL79Bpem9o2kxbEfsPKUs3M0252w10T4uzunAa6NWeViGkvB/FnxuhUxMN1LlGi/TXMq0Hr03S7cbl9IBcA1GkXmxcYerctU7a6GZjl+bM4CGoyuIWi1egpwIUzAKvIHPzJWcvV6qB/dRNc1gJyqMmLJtTLo6XYzTX91piwXW/JeZ64lH1+mIfGKQ5d19FiM0CryCBuhz9CYRUKZGYom2glRX7pVqa1Jg3MqKUQSCbO8T0DXd+Jqzcy2HLVrhft19+gOd7UeXnFGYWeCF4zpahzNPFK+U4Q7MOes47tJWeE/Ok/HD0vKj/sbW0vnGaftRHqDO3xDXa6Q8lDS3n6d835qmxq4N2uluos0Ne+3zAiQKSk3IHSTjj2ex57WJkNmveSOnE8AU2PjRITX1xZefcVf36gSzxc7TDc5CEvZnhLPBoyvNGGl5D5SDxiMqW9p0ZDuoYs0+3Qr++eZ5Z11Hua877nlF5n/Gl7eAgQSBybZPA05gWIDa81AbAGhAbAJaA2GqZJVDYtJ6A2ACwBBwkAFQR3TEEywaAJSA2ACwBsZUJZwJUq6c2qB78Up6777xZPJCnYmDOVhAnuqRQGXEW28Y1Zg5deUREzSSOTlEUv++qEopsic6XK8gCX9ibUS8anB2hXUsdVygHrxJgzlZBqtVTW2+F5WQ92Oi2U0k4LMxpJ7XvdJ6oq9dKM/vBi5fcNlYjJL5VikmuB0Srjqum0ILUhmULdHXxur14CZzf0UMqazvQP9qMYQxaiIAV0c51LJazWcf87rie2kwgk9y4L94X1/fauafVo3pCa3ib+Xf5lrXofTNxsaRF6Hw6Q/33TdBg9oz4iwsgLZuWeMqEtgViM40E2MIZ5vHdcXSCibcK/XuDfbx5XzvdHGug9cLq3R4bodz9HNytH2fedzGLXVuWTT4Y3PfaTZMRi/8QMvyrzxnVvO8YjTf30xMqA0Cc6/Sads47PtROG7U0mLY3dhAdUdf9kIapnza76TuOxRLbZp1yB6Hv5nw23haZtsPi2EFNnnVyrv38W3ovNnHf8oeC9wfuO4TTy62pzRWIEPoTdNC7p+NDRD0vO39X0fvmHwn9//PkJPW8YsFqcvYBp+m42Qc7N7XTj8rysRVasdaZP6maKNyziod+2jFKuDs3CaHNCYHJ7ZfoctPaEqzmNL2nvtPdYtJK6znAmpN0u9bKtlZ+0iyL3MmUV/c0JSx20nlfysUmHtoEfa/93tVm/+judZ1in29xpt7/SjzUPdTtOjOm3n9du67THNF7oMth1w5hLXN0yftROEIXjghRGhnnbFHUvRXve22k8JSRgZ6sD3k0ua+zlC1m1eKYmfdGG8zAWT07YJp+nBD3lijptZUeXiGsnGfJ5ukfw4Hs9bIQVux799pGlrygpVX8RObpn54lm6Yvx+apY3Wy3P+Uiy1J3+scXdGcAPzL7vyKv0xt4v/Ay6SWS6BAEP/Ke/uOBlJmyqRiLX0duH+4D1tO7e8qIQO9aB/yatHSYOYM8rCS61W6iyoaVBR5nVbaop0bdMZUjZbl1NjYQXu07450xsSQcrGV3/daH0o5i7KCYt4kHlLSHBHHh8r8Mp2gpXmwPbEgwuylh8Q8bG7K+ZktNwNdd76opdpey/417WIeNk/jPO/heZkQiOe8EMspYdmSozlf1GIrRtQY2rpLaL4YTcrFVk7f62TnelZTWLnNIcu2wL7Xh7+jcWGVe73yDWo4fKwE973Cmf9xz+wz2tCxcAZ6/H2X2odchx0kmcxm8ZeViLBijptdHzrO003lmBD7Q5YtLsNcFjUSlm0xKjjnJikvLNtLC/Sq1oQ3MpgVHfZGxr+DCmVUa17BoKdyeKidekJl80yvovru0HUlulcy4I00Msx5X1yZPJKex4LZ6fLvLpaBHn3fkoB317zveErzRupiCHr9zJqVbC0uz3VQZ6CcnvnOrIA3UhD2CsZ4I0P3xqj743M66CZ/bhHHue/5HjBK/ZneSCZpvUy81AagiuClNgCLAMQGgCUgNgAsAbEBYAk4SEDNozsh0gwsGwCWgNgAsETNiY1f/tZ1W966gl8Ab0CbYZeam7P5kRZa6NJCCEVRBKIsksDXeGrSyJ+zRziKwoyySIJzDU4jKS2JMhxFoTCjKdzjAlnSlQZztpqAw5T8YF4qoR1VWuAwJRUQe2qCo+HX+p1nqobKCbtAh8bmjeBcU7TucbaChFNODVg2DsQ1YwU9CxSyLOGYw2D8oxcDKC0bmTGBoW0x8Y2B2EQfPcYwcN/B+MY4Wvto+3PdRKP/ohNDWjBhCMcqdd7QYwLD28z4Qj9G0YhN1DBiDI04wnB8IyOvH9He1/jeQCY173uJJmmqq0NYR2GNh4i28Pdox8XHRYaBZasQMp1kWjyorgU6d83dkQQhnkKZ2iGuTtIctVObGxHf/dajdMU9V2ZTr9lBWznJUmVpnxQ/4xzY7B3jC9e87w9puHWHBas5T+NzRI3N7kPasoqeI5XRzFaIaP0fnfnTwFnedoku39bqdIjFE5pMg+Ee2u6+oXla/2xyq6lqfEjLF0FjV7sM+L3MEfwc8Hs6T7dXtDvXl1kC814azaGxBtpSB/O+dItNWJDeNcJaJLEIERTL1A4hGyv6jL6tWb0E2dQ+nH+m3/cRuvBNrkDTRY3pITqRzRaxavH8d1Z7uGeu03ue1Sut7zXnn9HYiG/JcnkpjIcrkMgumch71w42d9y5mnPdfEs2eDFP+ZIbOqaPOp6zJcjUDrLpfnNoyMNK79zoQjqRyOv4fcDlEnDGVIsHlFWT8LDSzyp+J7KQTjR8ncYup7aiswSdMdXCaSfc0afdd4wzptaoewdJfKZ2GK7P0cRzCd7P8zIhEP38koawuvNFLVX3WnJ9DjHvcq2bLIxDWmYxD9XknmTozhe1lOa1XDj60NZZwvPFWiPdYgv0y2ZnR8i6eOUH3Ixm+ZkpMctbzu+ajWEnF+X59ar7UewPfTfP8aKGpWfP0U+zwrIZ1bQSwg6STIa295U6ZmIr5rjZ/YI0grl5d4gm9v8xaNmcOV5UwZqBn5zqUq9aH7o5/bw7+mx4Ve2Sfm+k9BC6Q7Brx+j41DO0mQ5678P0OonjJ48RbSvkjRSoTG39upJw/USjBqM4b3i6n1YH3vHFejsLeVELUaI30hjaBesnBmow5sfy1NYV7HttvjOL90YyYa9gtDcy4t4Y9/7kObIf97w8Tr7nmzF7cpveSEGBd3W14o1EIDKoeeD6BwAYQGwAWAJiA8ASEBsAllj2wgsvlOUgqQS1MsEFoBxg2QCwBMQGgCWqLraWvu2UyWQos72PajyOFICyqLrYZoZOUDabpcG5btpYcggSAPWDtWFkLj9By5shNrB0wZwNAEtAbABYwp7YZm7SrfvWlN5ID4A6wZ7YON3/y5u0jj2TT0NyYOlhT2wPbabMk0TnslnKfm0p3ReAFGF3zjY3QzWe2Q7AgoGDBABLQGwAWMKa2Do7VtCtWQwiwdKl6mJTsZH9903QDwssPApAPYB8NgAsgTkbAJYou5QdACAZsGwAWAJiA8ASEBsAloDYALAExAaAJSA2ACwBsQFgCYgNAEtAbABYAmIDwBIQGwCWgNgAsATEBoAlIDYALAGxAWAJiA0AS0BsAFgCYgPAEhAbAFYg+n8qVFUOgLqfjgAAAABJRU5ErkJggg==;" vertex="1" parent="1">
          <mxGeometry x="-349.5" y="830" width="219" height="165" as="geometry" />
        </mxCell>
        <mxCell id="dAfgAvByTWpaN4ClfMxR-51" style="edgeStyle=orthogonalEdgeStyle;rounded=0;orthogonalLoop=1;jettySize=auto;html=1;" edge="1" parent="1" source="dAfgAvByTWpaN4ClfMxR-48" target="dAfgAvByTWpaN4ClfMxR-50">
          <mxGeometry relative="1" as="geometry" />
        </mxCell>
        <mxCell id="dAfgAvByTWpaN4ClfMxR-48" value="get multiple items" style="whiteSpace=wrap;html=1;" vertex="1" parent="1">
          <mxGeometry x="20" y="720" width="120" height="60" as="geometry" />
        </mxCell>
        <mxCell id="dAfgAvByTWpaN4ClfMxR-50" value="" style="shape=image;verticalLabelPosition=bottom;labelBackgroundColor=default;verticalAlign=top;aspect=fixed;imageAspect=0;image=data:image/png,iVBORw0KGgoAAAANSUhEUgAAARMAAAFpCAYAAAC/EMwfAAAAAXNSR0IArs4c6QAAAARnQU1BAACxjwv8YQUAAAAJcEhZcwAADsMAAA7DAcdvqGQAADGYSURBVHhe7Z1rbFXXnfafNlPNdKh8a8BEiQeMTSYTiB1jZTowYyYw9kzQSxpGcnBESyM+gKVI7QciOapQ0CgVQlgKH4qEhPkQ5YZiBqlQMkOmtpwGNPAyCFwbkmYSY+M6aWxDMD5T5p1K0/Zda+219177cm72OsfncJ5fteV9P/uQruf813+t/7O/0tzc/AcQQsg8+ar+Swgh8+Irf/Znf8bIhBAybxiZEEKsQDEhhFhhwbo5f/qnf4qysjLcd999ek/h8bvf/Q6JRAL//d//rfcQQpKxYJFJoQuJRD6ffE5CSHpyFpk0bO3CU8v1xuwVvH6kH1N6U/Lggw/qtcLn888/12uEkGTkNDKZvfI6uru70R0SEkLIvUfBJGD/8i//Es8++6xannrqKfzJn/yJPuLzyCOPeMfkuryGEFIYRLo5zz33HMQ+vRXPr371K7zzzjt6Kx7ZzVl7+3Uc6Y+PSVJ1czZs2IC7d+/iP/7jP/SeKFJMZD4j1Tm2YDeHkPTcV15e/k96XdHQ0JA26ShHN4aHh/VWPNWr/ho1/28Il0fv6j1BUn1GTU0NPvvsMzWSYiL319XVoaKiAo899pj6K4VPnvuNb3wDf//3f6+e3933wAMPoLm5WQlPU1MTfv/732PFihVYt26dd87//u//qvuEr5X7Xf7rv/5LrxFCkhERky+++EI1Wjl0G8etW7fwL//yL2mHS7MVE7NBj42NYXR0VB/xEc+qnuvatWtKGP7nf/4HH3zwAf7oj/4ITzzxBC5evIgrV66obSkKv/nNb7Bs2TIlfL/85S+xZs0ata+vr099R3me/D5r167F+Pg4zp49i5GRkYCQSCgmhKQnkjORjeunP/2p+hsm1bH5cufOHXXvf/7nf1YRRTb5kMWLF6OyshJtbW0q5yKjlkWLFqljMzMzmJiYUMIjReGTTz5R+6Vousj1Rx99VAkMIWRuxCZg40Qjl0ISRjZuVwwyRXaJTp8+rcRILu+//74+kp6PP/4Y//qv/4pVq1YlTf4SQlKTdDTHFY/JyUn8+te/zpuQSGRkIhOwmSIjDtn9Wb7cndiSPTJy+fnPf47f/va3FBNC5kDKoWEpHm+88QbeeuutnAqJbLwyInCHhiXpRmmkyC1dulRdJ4VgcHBQdVXce8ika6bI0SN5zdNPP61ETHa5CCHZkdMZsHMdGi40ODRMSHoKZtIaIaS4yamYlK95Hl1dXejqbEW13uciK3KLgWJ5TkIWGloQpIAWBIRkzoKJCSHk3oI5E0KIFSgmhBArUEwIIVZgzsSjGq2dz2NNuWPqlGx+DCEkniISE7+xK268h+7jqW0QsqG6tRPP112P2EsSQjKjaLo5DVuFkMwIAZE2kN3vYXz5U+hsDc9emTvVVeWYvX6VQkLIHMlZZGLLsU2xtBWd36vD9TeOoH/S2ZVpJKHOWwNcMa6NI930f0JIanIWmXz1q+lv/bWvfU2vpaH6myifvY6rrhg0dgiBEP2d8m9GZtYSQhaGnInJz372s5SVxvLYmTNn9FaGyAhFTs//B+A92dVBBZYs1ceSMNV/RHSLUkclQq2wpBK4c5NRCSFzJWdiIsUimQdKqmNJKV+D57/3TVxQOZNeDC9dIqTkDqZTikR6ZPemq2sLcKobvUN6JyEka3KagI0TjTkJydSXmBX/u/KGEBG9y+n6fDnvhOnwcSlOJ4FnutDRqHcSQrImp2IiccVjXo5tk1dxfbYca55xq4+r0fpXyzIafZEJ2K6uTrSm7A5NYXoGqFjMDAwhcyXnYiKR4jE/x7Yp9B95HVcgujoyZ9L1POquc+SFkEKCM2A1HBomZH7kJTIpBqZuz6K8it0cQuZK5CVcpcrd0c/w9b9pR/vf/TVWf30k6cvDCCHxsJtDCLECuzmEECtQTAghVqCYEEKsQDEhhFihRMXkALYP3MDenxxDyomxbcfwg4F+NOnNXLF+42acfHEbDjboHYQUIYxMipwd7dvw9sYyvUXIwlGiYvIS3ty4HK/84zbMs+jYCmcH3sWWV49htz0XSkLyTsnNM1m6bxi71upf8pFevLLrJWfd5YV+7G2v1xuSEZze2IpBvZWeBnR0PYVlGXnU1uDgiy1YodYTuPzWu/iRMZtfdn86cRb9VZvxzDJn32ifIzry2O6mmIhk/By2nJjQG4Tkj5KLTCb3NOAVEZX0XEjoPQYyR9K+BJf2i6hFRi77z+OOPpQbJrBbRCRbXj2HUb0nzKKmzWi97UQuBwcTWPGtVVgv9rvRzKlx4O6gs64WCglZIJgzMWh6dh1w4RDO9Okdc2IYvdLAyZZzvog0vjPgCN/ZD8dwt6wKdWqLkMKCYkIIsQLFhBBiBYqJwRc3E6h4dIOee3IA23+4DhVqPRtkArYLXVvzM2nk+u0EFtXVqDwKIQtJiYnJTmz6yQ3sHbjhjOjUd6j1vT0H1NHJPYdwCeuwS+4b2IRb+3sxpo7kiIYWNVntpBrRKUPzd+X6Zrycha3K2YGzuIxG7Fb3EUt7jT5CSH6hBQEhxArs5hBCrEAxIYRYgWJCCLECxYQQYgWKCSHEChQTQogVKCaEECtQTGKQNgVyMtv2F/SODHGvMyfCEVIqlKSYNPXcwA/27dRbWSL9TpLYPaa0NygYyvDyTlpEEvswMonBFYU3D+sdhJC0lNR0+oDLmonnuCaNpjtQq3YmcGl/g+9tIo2TYgv/ok5s6nMWn4m6uAXuD9y5sA8/3nNUbyWnurUTz68BrrxxBP1pfSZl5LEZzd7XnMCpV8/hNbEm/WJdxzYTaa6kPFOqV+Ht71ah/9UbeMx1gEsM4eDRD3FWnUlIckqyNkd2c1pupmrIstHLQj9DTFxkN6dtGj0p/GPjxUQWGe7Byo/cz3WEBSfSR0DZiImyc6waSuG45ohN5cUYz1klJo1Y5FlIOraS0FaRhKSC3Zx80bYBK3Eexz0Bewl9FxKofTx9onaq/wi6uzOJSjTLlmOHXp0Lo32uF+0Ero4Ljbk/JpojJATFJF+sXIKKctfewFliu1zzRHrDnhqvwTPakiD712AIATGikNdOHPNsIwlJBcUkn8yeR480qjaXSF5l/kgBcAymz2GqaTPfq0PyQkmKSdBRLUs+ncad8tVoatPbmXL4MsZEZLJ1DkPSMmfS1dWJ1qwfeBYzkaAigc9mgBUP00SJ2KVEzZGcZOgT5XrTHc2JvDNHEhrVEQRHhdzRnNA9XQLv5gmO5kjGrCZgwyM5gtj36Jjv64kbzXFGfwjJBjqtEUKswJwJIcQKFBNCiBUoJoQQK1BMCCFWoJgQQqxAMSGEWIFiQgixQsmLybyMknKAfJ69A8PYlO0M2wxwneCydZAjJBMYmdwzOO9RvpeFQvqxsM6ocKGYFBiDu2QBYIyPigXoIEdySQlOp4/W0AQczwL1OenqcmJqa0L1Pf69nc+9v285rj1+A0+rU4z7B5zcwu5t8trvA4fP4P4furU9/jmya+TcL4j/2Skc5DTBe5jnyGubcW3/NFrc55PVzynMoVyyc4jTxk5N/r/tqDZlCu/38OqOfMOnqw+7bnKuwZNcJ/mg5MRENRr4xXdy23NdUw16NT51G5ISBvgNWx1fgnMhm0YPdf6S2MZqipjbyMPPooj9DPdav5FHr/XFKnnkEe8gpwTy0WueQDiCOa2/tytErng527Yd4jIpMpTdnNbbuigxgF/g6BYtKotKxBU5klxRWt0c0VBb6kWjMBuvwdInVwMXDvkN7XAvLs3WY3UgDxHedhGNua1eCIVxfRwjvV4UNPiLEWBxTcZWCGMnfBHI9trkHECbiLTG+vxIY3LPodD3liLmittLuCY+uvLB9EnrrB3iUIPH5uOaLyIVV2he+0SISGUZ1qstkg+YMzF4YHEZKtbu8ZzQ9g6ELAVEg/vxiRHUtuvjgVde1ON+ce7M57q7lISxXxhCdrgVr2TQXUhK+RI8oFfnRwK3PtWrC8XUh/hO3wRWtDkOcSd3rspaCEalgLgMi6iERth5hWISQnZBAk5o4YSlFAC9//TNddjlCcoIbs2qlfwxO40v9Or8KMP9K/WqwhHGvCMFQDnEHcOpmUbsnoOgkIWjtMRE/PLNGN0UmRswE5ey61Cx9vsZz/GQjm0+RzH4UUJELf1o0ntyxwFsbxddqo/eN6Kao5i8iYwMqoM43ZZa0QV0o6yl+zahdvY8+uY56jN3hzjg+u2IRZzat6iuhgJToJTeaI452jLSi56bm7AVh7w8Rng0xhw1CY/kmMdcwufEjebEJS6j95a49/eTty7+fU3cZKmDd07kO0mCozrB0Rzze0WTtoGkdQqyScBGR2z89/34hJzkYkZz+EqOhYNOa0VBJiM1hCwszJkQQqxAMSGEWIHdHEKIFRiZEEKsQDEhhFiBYkIIsQLFhBBiBYoJsYus/pW1Ne18l3GpQTEJIy0ABuY+JV7ODi0kG0jrNLTMqQiP3PtQTIhdZPWvLNajj0jJQac1rw4lWNfiE6xhCdbQ+Mfia2sEI66BUfoal/A9Ii5usTSgo+spLLvxHrqPZ1CYokyIGrFIb/r1LQIZdTx8AwdvN3p1Mq7ZUOQ6D7+GRhkSKZcz4zqDZE5qEnmsE2fRX7XZu4d5nBQ+JScmqsEuPhN0NzNJ5aYmjm1/8n28aTZ+w6FMkrwILo2YpPrclGQjJjU4+GIL4DVSZ7vabfhSTNpqfIFRAlKLj037Q3nOt27jYAqvkFhHNHVv+MV7arvcs1Z0hcYVIbVdN5byc0hhUZrdnPrmueVE+rZ5QiKZ/Pk13LFmUCRJ5uKWimH0dndnFJWs39iIFYkhnPROncDuvolgWb84ftCNVKYm8HGiDJXVzubcKcPL36oRQjHkVwEPn8Op8TI8ssqI5gyntLMfjuFuWRXq1BYpBkpOTKRD++mRejyt3dSyS5bKLpLrwiYWzwDaAild3Cwyk8j6l776/pju2xyYuhXs9pB7i5KMTJzXScilFzNr92QsKE09e/AEzqNHO629sv887uhjVkjq4maRkC/q+gws1WyJQFCUyvBQpV4l9wQlPpoTY7UYcmOLcHNC50dElPJCNDKR7msVj25IIgK+PaLMt8S9nsIl6OKWCpkz6ULX1vROzE7XoRFbvFNrsKWpDKMX4/MS6zeuR3PZBK6aPaip2+IetfjbrLo+CXxwPYFFTY3YofegoVHduz+UpCXFS4klYKOOZf5oi0HAmcwYzVFJUl9Axi6cR+XaZK+l0Jvm/UMub6fR4SVgo6NBURe3eOY3mhMYdXETsB5xbmd+stTBPcdJ5q7Qe13M+wevC77XRh2rGvJHltRzpn71BSksaEFAfDIYqSEkGZy0RgixAsWEEGIFdnMIIVZgZEIIsQLFhBBiBYoJIcQKFBNCiBUoJgWGrCTeOzCc8fuOSWEgJ92dfHEbDqafiHzPwtGcvOLMjk31mk8pJk/XBz1U5kfMrN+MZ9e6pH/unBKZmRvvl5KSOU7IC87aNZDV1ca93PNK2YOFkUmB4RQh2hISH/kSc6+IUFVNz92acmGQ0/aPYYtc3hoSqrsZb2+MaeSWOTvwrvOZr57DqNiWYqG2Q6LknlfKZk6lGZkEam+chhY0KLqM1a7r2uz5gPlRsIYm/AsfigKMa52Iw9ltEvxst+4nLnIIOcEFnksea8a1/dNoce/hHXeeaeVHpmFTdF/we/mRUdrnliSrZUpDw9YuPLV8HO919yJlG1SRiWGsJInsC9UGBQyeUjvEKb+VnZvR7H59033OI2ws5WJ+brDeyDm2HDOD5WgWUcvdwXP4uK5FfI55XvC5s464CojSi0zU//GXiP/DaxsBsfiNTCJ/taUjmjzWi7HydWhzK4jFtbvWTouG7lzXc2EJnjZsApbu6wAOu/fdh0tYh63a3sCJOMS+WceOMfLZ0s9E7ou1NZCNvwOVXnTh3HtXzwF9XCKeWwmhPB567ghHMXkTqFisBUAIWRsOec/UcwF44gXne6V9bimC5r/niWk88cM8RD2yehnleEhXL+9oX46rKoLQUcSyFid/4XrS9glxkF0T4xxXmHa0CyGZEQKi9r+Ly5UtWUQ9E9it7ycjlyg1aJYFjNKEqqkFlRePGaZQUsQcpzv3maZExFWseZcSExPRKNvqxa/qoZS/nGMn3F/Wl3BtBKh80BGEpsfrxTE/Ypjcc0Y02tVo0snSyT2txn2PYvCjhN9g58MLHSLaGcE5T/SO4sxhIToBxzgZEbjPFnzuOAIWB/NwkFv65GrA/Pc83CuEJzPHuOHj3ehOF5UkYyoBLwAQvHbCrC6ewNXxTE2davDYMhGleJFIAj+6GHKfmxciCjmn7x1wuRNU1+ARDOGIF4lM4ORgAiseLs7XhJSYmNRDegHNfG5GImFGcM1IMspfZudXeCeWLobvhKaWkAG1/JX2jt0IWQrMk9lpfKFXbfDAYvPZZORjfK8sHOTkfSrW7vGvHQgne3NEdRkCliqy2yPf16MX15Q6Leo+NXjGuDac7M0Z1VVYVNaI3cZnxyZ7i4QSE5MYM6QsMUN9Z3GjmAPYLhohjERnzwWLfd9wpLByScYNPsoBrBYB052bInwRzNdBzkzuukuuR33Wr6rFIsziMxmeyLyIEAAvOSqWUyIyyRwjuesu+bJhCHS99BLJ1xQHJSYmTtejtn0uffrMrvWiHhGlbI1EJk6uovZxM9eRAYcvY0xEVS2evaTbXevNYnjXxcm/1M6ex3Gja5PaQS75cw/+YkREJt+f07wYmYDt6upA1ikCEYU4w7Bm1yaBGbffI45HIpNkDnHKNFtEJgvxBsLhGxgVkUlnHkal8kFJjuaEXc2ioznJ52BEHNGMUZXwSM+lC0vwROS1GsFRGfezI/dVmKM6odGcgEOcPJbsNRpQIzcp3eXU907nIBf/3IrQ6FjwuZOT3WiO2djDoybBd/bIX/vLM414JPS6jeCckRSjOYLoqEqS0ZzIs0nc55PXNGJGrleL8/Q8l7rAq0CCozmSYp2rwklrhBArlN7QMCEkJ1BMCCFWoJgQQqxAMSGEWIFiQgixAsWEEGIFigkhxAolLyZyclemLy4nC42c4LUNJ3euslSER2xS8pPW/JmixtTyuRCZBRqaJZoJ8h5t0wH/lPwRnQUanCWaCc49ZJl9djM4o7NAXYKzQfV5IZczUhiwm2MVOY3cL5bD2j1FF/XIaeRuwdmpcVlN24Id+ljucD1BjuHgYCJQ/BYUJX0ehaQgKcHIRBa6BWtVvAgiEhlEa17C9TdeDYqKTBCsSYnsS1JfE6qN8TFrXELPHa6vScbSVnR+bw1w5XUc6TcdQMI4UcUj182alOi+YH2LXyMTqI0xCNS4BOpYovU1EnX/urFI5BH43JATmjzWiTFMNTWK6EZEU+K/1TPyc4zzktflEFuUXGSiyu1vioaoI4jTThV+ZghxSOW0FuHTadzBEizVFbVNPc24pq9Vbmj1HdguTYRcl7UT4mFk4aB3ji9Mwefeh0uLO/IQ9STw2QywqEorWPUqbBFN3I1cDoqHa/62k7947YTc9y4uC90wrQA8IVE2AeVCQPSxvlk0fzfzqMf1WFWRSwyLmmpVQd1lWQEsC+reGsLdZcud+6sq41nPZuDgYDmeYd7FOqUlJiICaKkXv/aZ/KLHkM5pLULfBERb9BjcZUQtGbih+Uj/EfO5j4pIaQQVj25ILmQuk/040t2dJipJzvXbRuOd+hC7vahFNPAPx3C3rAp1ejsV0n8Eg2f9SGR4SDX8x2xZFI4PefcevRiManY8LL1O/Ejk7MAQRuPsCMi8YM4kYzJwWgsjQu1KvaqQ3R7v2nij5ljUfaQ3rfHZoWRvrqirMjOystvju4KdjDVqjkfeZ1GT824ZZwkne3NFGR4S/xFWtBnPnSTZS+YHxSRLkjutRZH+qBWYxqQ8LvMiQgDM67PqYpnJXXfJ+aiP9EcF7t527OmU8TIMZzDZlVBHMsNM7rpLvnw7zK6Xs0TzNWR+lJaYqG6Hb3Ysk6mR6MCzR9SOZGpdkqVLm8qvlAW6RTIHcetTvSqORz5b5ljiuk197+PTWRGZBNzoM0QmYLu60NmabUwvoxBnGNY3PBbMJHQXQhz/djgycXIscYbIr30i3dnX4+W8dy0S+OB6QkQm+RiVKm1KbzRHjbDoVjzSi56bm7AVh7z5IOZ7YsZO9ALtqUZzBK7TmnlfRfT9MYF30IjrLt1ch5WhOS5JR4tSjUKlIsvRnEDXI/z+mNA7aEYHh1DdVIX+wMhIcM5I8tEcSXRUJX40J+bZJPr51DXydRInZtV5ap7LlHxW/9mCozkCzlWxDp3WCCFWYM6EEGIFigkhxAoUE0KIFSgmhBArUEwIIVagmBBCrEAxIYRYoejmmVS3duL5NeXA7BW8fqQfnBFNSGFQtJPW5Htq195ON6uTEJIvirabM/yf4yivYg05IYUCcyaEECtQTAghViheMZn6ErPL/wK2jLoIIfOjuKuGdXl9+Y330H08Ty47hJBYildMGjvQ9VdfcniYkAKhuHMmM9MUEkIKBCZgCSFWoJgQQqxQtGLS8OfLMHubnRxCCoXirc3BON7r7gXHcAgpDIp7aJgQUjAwZ0IIsQLFhBBiBYoJIcQKFBNCiBWYgPWoRmvn83BM3Gi6REi2FJmYNKCj6yksy4FloxpyrrvOWh9C5kjxdHNkYV/XX+DLK7N6h12qq8oxe/0qhYSQOZKzyOS5556DuLfeiudXv/oV3nnnHb2VChGRdC7Bz0XUIPoiWUUQziQ34MobR9A/qXfGQE9ZQuZHziKTr341/a2/9rWv6bV0DKOX3Q9CCpqcicnPfvYz3Lp1S29FkcfOnDmjt3LHVP8RdHenjkpk8nVJJXDnJuWKkLmSMzGRYvHTn/40VlBSHcs3snvT1bUFONWN3iG9kxCSNTlNwMaJRiEJiWT4eLeIXE4Cz3Sho1HvJIRkTU7FROKKx+TkJH7961/nXUhkArarqxOtS/WOWKYwPQNULOZ7eAiZK0Uyz8SfUBYgg/kmHM0hJD9wBqyGYkLI/Mh5N6dYmLo9y9eNEjIP7isvL/8nvV7S3B39DF//m3a0/91fY/XXR3B59K4+QgjJBHZzCCFWYDeHEGIFigkhxAoUE0KIFSgmhBArlKiYHMD2gRvY+5NjSDkxtu0YfjDQjya9mSvWb9yMky9uw8EGvYOQIoSRSZGzo30b3t5YprcIWThKVExewpsbl+OVf9yGlM4EeeLswLvY8uox7ObrCUkRU3LzTJbuG8autfqXfKQXr+x6yVl3eaEfe9vr9YZkBKc3tmJQb6VH+9TeeA/dx9OpQw0OvtiCFWo9gctvvYsfGbP5ZfenE2fRX7UZzyxz9o32OaIjj+1uiolIxs9hy4kJvUFI/ii5yGRyTwNeEVFJz4WE3mMgcyTtS3Bpv4haZOSy/zzu6EO5YQK7RUSy5dVzGNV7wixq2ozW207kcnAwgRXfWoX1Yr8bzZwaB+4OOutqoZCQBYI5E4OmZ9cBFw7hTJ/eMSeG0dvdnUFUkiEi0vjOgCN8Zz8cw92yKtSpLUIKC4oJIcQKFBNCiBUoJgZf3Eyg4tENeu7JAWz/4TpUqPVskAnYLnRtzc+kkeu3E1hUV6PyKIQsJCUmJjux6Sc3sHfghjOiU9+h1vf2HFBHJ/ccwiWswy65b2ATbu3vxZg6kiMaWtRktZNqRKcMzd+V65vxcha2KmcHzuIyGrFb3Ucs7TX6CCH5hRYEhBArsJtDCLECxYQQYgWKCSHEChQTQogVKCaEECtQTAghVqCYEEKsQDGJQdoUyMls21/QOzLEvc6cCEdIqVCSYtLUcwM/2LdTb2WJ9DtJYveY0t6gYCjDyztpEUnsw8gkBlcU3jysdxBC0lJS0+kDLmsmnuOaNJruQK3amcCl/Q2+t4k0Toot/Is6sanPWXwm6uIWuD9w58I+/HjPUb2VnOrWTjy/BrjyxhH0p/WZlJHHZjR7X3MCp149h9fEmvSLdR3bTKS5kvJMqV6Ft79bhf5Xb+Ax1wEuMYSDRz/EWXUmIckpydoc2c1puZmqIctGLwv9DDFxkd2ctmn0pPCPjRcTWWS4Bys/cj/XERacSB8BZSMmys6xaiiF45ojNpUXYzxnlZg0YpFnIenYSkJbRRKSCnZz8kXbBqzEeRz3BOwl9F1IoPbx9Inaqf4j6O7OJCrRLFuOHXp1Loz2uV60E7g6LjTm/phojpAQFJN8sXIJKspdewNnie1yzRPpDXtqvAbPaEuC7F+DIQTEiEJeO3HMs40kJBUUk3wyex490qjaXCJ5lfkjBcAxmD6HqabNfK8OyQslKSZBR7Us+XQad8pXo6lNb2fK4csYE5HJ1jkMScucSVdXJ1qzfuBZzESCigQ+mwFWPEwTJWKXEjVHcpKhT5TrTXc0J/LOHEloVEcQHBVyR3NC93QJvJsnOJojGbOagA2P5Ahi36Njvq8nbjTHGf0hJBvotEYIsQJzJoQQK1BMCCFWoJgQQqxAMSGEWIFiQgixAsWEEGIFigkhxAolLybzMkrKAfJ59g4MY1O2M2wzwHWCy9ZBjpBMYGRyz+C8R/leFgrpx8I6o8KFYlJgDO6SBYAxPioWoIMcySUlOJ0+WkMTcDwL1Oekq8uJqa0J1ff493Y+9/6+5bj2+A08rU4x7h9wcgu7t8lrvw8cPoP7f+jW9vjnyK6Rc78g/mencJDTBO9hniOvbca1/dNocZ9PVj+nMIdyyc4hThs7Nfn/tqPalCm838OrO/INn64+7LrJuQZPcp3kg5ITE9Vo4BffyW3PdU016NX41G1IShjgN2x1fAnOhWwaPdT5S2IbqylibiMPP4si9jPca/1GHr3WF6vkkUe8g5wSyEeveQLhCOa0/t6uELni5WzbdojLpMhQdnNab+uixAB+gaNbtKgsKhFX5EhyRWl1c0RDbakXjcJsvAZLn1wNXDjkN7TDvbg0W4/VgTxEeNtFNOa2eiEUxvVxjPR6UdDgL0aAxTUZWyGMnfBFINtrk3MAbSLSGuvzI43JPYdC31uKmCtuL+Ga+OjKB9MnrbN2iEMNHpuPa76IVFyhee0TISKVZVivtkg+YM7E4IHFZahYu8dzQts7ELIUEA3uxydGUNuujwdeeVGP+8W5M5/r7lISxn5hCNnhVrySQXchKeVL8IBenR8J3PpUry4UUx/iO30TWNHmOMSd3LkqayEYlQLiMiyiEhph5xWKSQjZBQk4oYUTllIA9P7TN9dhlycoI7g1q1byx+w0vtCr86MM96/UqwpHGPOOFADlEHcMp2YasXsOgkIWjtISE/HLN2N0U2RuwExcyq5DxdrvZzzHQzq2+RzF4EcJEbX0o0nvyR0HsL1ddKk+et+Iao5i8iYyMqgO4nRbakUX0I2ylu7bhNrZ8+ib56jP3B3igOu3IxZxat+iuhoKTIFSeqM55mjLSC96bm7CVhzy8hjh0Rhz1CQ8kmMecwmfEzeaE5e4jN5b4t7fT966+Pc1cZOlDt45ke8kCY7qBEdzzO8VTdoGktYpyCYBGx2x8d/34xNykosZzeErORYOOq0VBZmM1BCysDBnQgixAsWEEGIFdnMIIVZgZEIIsQLFhBBiBYoJIcQKFBNCiBUoJsQusvpX1ta0813GpQbFJIy0ABiY+5R4OTu0kGwgrdPQMqciPHLvQzEhdpHVv7JYjz4iJQed1rw6lGBdi0+whiVYQ+Mfi6+tEYy4Bkbpa1zC94i4uMXSgI6up7DsxnvoPp5BYYoyIWrEIr3p17cIZNTx8A0cvN3o1cm4ZkOR6zz8GhplSKRczozrDJI5qUnksU6cRX/VZu8e5nFS+JScmKgGu/hM0N3MJJWbmji2/cn38abZ+A2HMknyIrg0YpLqc1OSjZjU4OCLLYDXSJ3tarfhSzFpq/EFRglILT427Q/lOd+6jYMpvEJiHdHUveEX76ntcs9a0RUaV4TUdt1Yys8hhUVpdnPqm+eWE+nb5gmJZPLn13DHmkGRJJmLWyqG0dvdnVFUsn5jI1YkhnDSO3UCu/smgmX94vhBN1KZmsDHiTJUVjubc6cML3+rRgjFkF8FPHwOp8bL8MgqI5oznNLOfjiGu2VVqFNbpBgoOTGRDu2nR+rxtHZTyy5ZKrtIrgubWDwDaAukdHGzyEwi61/66vtjum9zYOpWsNtD7i1KMjJxXichl17MrN2TsaA09ezBEziPHu209sr+87ijj1khqYubRUK+qOszsFSzJQJBUSrDQ5V6ldwTlPhoTozVYsiNLcLNCZ0fEVHKC9HIRLqvVTy6IYkI+PaIMt8S93oKl6CLWypkzqQLXVvTOzE7XYdGbPFOrcGWpjKMXozPS6zfuB7NZRO4avagpm6Le9Tib7Pq+iTwwfUEFjU1Yofeg4ZGde/+UJKWFC8lloCNOpb5oy0GAWcyYzRHJUl9ARm7cB6Va5O9lkJvmvcPubydRoeXgI2OBkVd3OKZ32hOYNTFTcB6xLmd+clSB/ccJ5m7Qu91Me8fvC74Xht1rGrIH1lSz5n61ReksKAFAfHJYKSGkGRw0hohxAoUE0KIFdjNIYRYgZEJIcQKFBNCiBUoJoQQK1BMCCFWoJgUGLKSeO/AcMbvOyaFgZx0d/LFbTiYfiLyPQtHc/KKMzs21Ws+pZg8XR/0UJkfMbN+M55d65L+uXNKZGZuvF9KSuY4IS84a9dAVlcb93LPK2UPFkYmBYZThGhLSHzkS8y9IkJVNT13a8qFQU7bP4YtcnlrSKjuZry9MaaRW+bswLvOZ756DqNiW4qF2g6JknteKZs5lWZkEqi9cRpa0KDoMla7rmuz5wPmR8EamvAvfCgKMK51Ig5nt0nws926n7jIIeQEF3gueawZ1/ZPo8W9h3fceaaVH5mGTdF9we/lR0Zpn1uSrJYpDQ1bu/DU8nG8192LlG1QRSaGsZIksi9UGxQweErtEKf8VnZuRrP79U33OY+wsZSL+bnBeiPn2HLMDJajWUQtdwfP4eO6FvE55nnB58464iogSi8yUf/HXyL+D69tBMTiNzKJ/NWWjmjyWC/Gytehza0gFtfuWjstGrpzXc+FJXjasAlYuq8DOOzedx8uYR22ansDJ+IQ+2YdO8bIZ0s/E7kv1tZANv4OVHrRhXPvXT0H9HGJeG4lhPJ46LkjHMXkTaBisRYAIWRtOOQ9U88F4IkXnO+V9rmlCJr/niem8cQP8xD1yOpllOMhXb28o305rqoIQkcRy1qc/IXrSdsnxEF2TYxzXGHa0S6EZEYIiNr/Li5XtmQR9Uxgt76fjFyi1KBZFjBKE6qmFlRePGaYQkkRc5zu3GeaEhFXseZdSkxMRKNsqxe/qodS/nKOnXB/WV/CtRGg8kFHEJoerxfH/Ihhcs8Z0WhXo0knSyf3tBr3PYrBjxJ+g50PL3SIaGcE5zzRO4ozh4XoBBzjZETgPlvwueMIWBzMw0Fu6ZOrAfPf83CvEJ7MHOOGj3ejO11UkoypBLwAQPDaCbO6eAJXxzM1darBY8tElOJFIgn86GLIfW5eiCjknL53wOVOUF2DRzCEI14kMoGTgwmseLg4XxNSYmJSD+kFNPO5GYmEGcE1I8kof5mdX+GdWLoYvhOaWkIG1PJX2jt2I2QpME9mp/GFXrXBA4vNZ5ORj/G9snCQk/epWLvHv3YgnOzNEdVlCFiqyG6PfF+PXlxT6rSo+9TgGePacLI3Z1RXYVFZI3Ybnx2b7C0SSkxMYsyQssQM9Z3FjWIOYLtohDASnT0XLPZ9w5HCyiUZN/goB7BaBEx3borwRTBfBzkzuesuuR71Wb+qFoswi89keCLzIkIAvOSoWE6JyCRzjOSuu+TLhiHQ9dJLJF9THJSYmDhdj9r2ufTpM7vWi3pElLI1Epk4uYrax81cRwYcvowxEVW1ePaSbnetN4vhXRcn/1I7ex7Hja5Nage55M89+IsREZl8f07zYmQCtqurA1mnCEQU4gzDml2bBGbcfo84HolMkjnEKdNsEZksxBsIh29gVEQmnXkYlcoHJTmaE3Y1i47mJJ+DEXFEM0ZVwiM9ly4swROR12oER2Xcz47cV2GO6oRGcwIOcfJYstdoQI3cpHSXU987nYNc/HMrQqNjwedOTnajOWZjD4+aBN/ZI3/tL8804pHQ6zaCc0ZSjOYIoqMqSUZzIs8mcZ9PXtOIGbleLc7T81zqAq8CCY7mSIp1rgonrRFCrFB6Q8OEkJxAMSGEWIFiQgixAsWEEGIFigkhxAoUE0KIFSgmhBArlLyYyMldmb64nCw0coLXNpzcucpSER6xSclPWvNnihpTy+dCZBZoaJZoJsh7tE0H/FPyR3QWaHCWaCY495Bl9tnN4IzOAnUJzgbV54VczkhhwG6OVeQ0cr9YDmv3FF3UI6eRuwVnp8ZlNW0LduhjucP1BDmGg4OJQPFbUJT0eRSSgqQEIxNZ6BasVfEiiEhkEK15CdffeDUoKjJBsCYlsi9JfU2oNsbHrHEJPXe4viYZS1vR+b01wJXXcaTfdAAJ40QVj1w3a1Ki+4L1LX6NTKA2xiBQ4xKoY4nW10jU/evGIpFH4HNDTmjyWCfGMNXUKKIbEU2J/1bPyM8xzktel0NsUXKRiSq3vykaoo4gTjtV+JkhxCGV01qET6dxB0uwVFfUNvU045q+Vrmh1XdguzQRcl3WToiHkYWD3jm+MAWfex8uLe7IQ9STwGczwKIqrWDVq7BFNHE3cjkoHq75207+4rUTct+7uCx0w7QC8IRE2QSUCwHRx/pm0fzdzKMe12NVRS4xLGqqVQV1l2UFsCyoe2sId5ctd+6vqoxnPZuBg4PleIZ5F+uUlpiICKClXvzaZ/KLHkM6p7UIfRMQbdFjcJcRtWTghuYj/UfM5z4qIqURVDy6IbmQuUz240h3d5qoJDnXbxuNd+pD7PaiFtHAPxzD3bIq1OntVEj/EQye9SOR4SHV8B+zZVE4PuTde/RiMKrZ8bD0OvEjkbMDQxiNsyMg84I5k4zJwGktjAi1K/WqQnZ7vGvjjZpjUfeR3rTGZ4eSvbmirsrMyMpuj+8KdjLWqDkeeZ9FTc67ZZwlnOzNFWV4SPxHWNFmPHeSZC+ZHxSTLEnutBZF+qNWYBqT8rjMiwgBMK/PqotlJnfdJeejPtIfFbh727GnU8bLMJzBZFdCHckMM7nrLvny7TC7Xs4SzdeQ+VFaYqK6Hb7ZsUymRqIDzx5RO5KpdUmWLm0qv1IW6BbJHMStT/WqOB75bJljies29b2PT2dFZBJwo88QmYDt6kJna7YxvYxCnGFY3/BYMJPQXQhx/NvhyMTJscQZIr/2iXRnX4+X8961SOCD6wkRmeRjVKq0Kb3RHDXColvxSC96bm7CVhzy5oOY74kZO9ELtKcazRG4TmvmfRXR98cE3kEjrrt0cx1Whua4JB0tSjUKlYosR3MCXY/w+2NC76AZHRxCdVMV+gMjI8E5I8lHcyTRUZX40ZyYZ5Po51PXyNdJnJhV56l5LlPyWf1nC47mCDhXxTp0WiOEWIE5E0KIFSgmhBArUEwIIVagmBBCrEAxIYRYgWJCCLECxYQQYoWim2dS3dqJ59eUA7NX8PqRfnBGNCGFQdFOWpPvqV17O92sTkJIvijabs7wf46jvIo15IQUCsyZEEKsQDEhhFiheMVk6kvMLv8L2DLqIoTMj+KuGtbl9eU33kP38Ty57BBCYileMWnsQNdffcnhYUIKhOLOmcxMU0gIKRCYgCWEWIFiQgixQtGKScOfL8PsbXZyCCkUirc2B+N4r7sXHMMhpDAo7qFhQkjBwJwJIcQKFBNCiBUoJoQQK1BMCCFWoJgQQqxQPKM5blGf3hz/t270DukNQsiCc195efk/6fUCphqt31mHmeM/xpv/9u/49988hP/zD3+Dr1+/jNHf6FMIIQtKkXRzptB/5Aj6J/Xm0C8xLmKUb2bg2ignuXV1daJ1qd5BCAnwhz/8IemSDcyZEFJiZCMY2ZxblDNgpTP9U5V81QUh2ZBMDFKJxFe+8hW9FiRuf5HW5txhXQ4hWeAKRm1tLRoaGvDHf/zHajsbfvvb32J4eBhjY2NqOywoRdXNcYQEuPIGhYSQTDEjj7kKiUReJ693CUc0RSMmvpAYidgMyD4BW4aXd27DyRc34+W4BG/1Krz9oji+cxXW610BGlrEteJ4e43eQUhhIBv/XIXERV6frFtUJGLSgCeV7UA51nyvS4iDXjpbwddwEZIct+EnE4C5EndfWhAQcg8TbvQdHR3q73zo7e1Vf92cifuXQ8OElAi2opNk92FkQsg9jBmZyOW5555T25JNmzZh6dLUycTJyUmcOXNGbzm88847KhphZEJIiWAKSRyuCKTivvvu02tRwve3Epk8++yzeo0QUgjIBi6X3//+92r53e9+p5ZvfOMb+gygoqICGzZsUH/juHPnDt5//33118SNTCTmX0YmhJQoycRCkupYMpgzIeQeJdwNkX/NnIlLOEJJJySMTAghsbji8eWXX2J6ejrriMQlj5FJAzq6nsIyvUVzI0JyS6aRSbYUQGQyjN7ubnR3v44rs3oXIeSegd0cQu5RwtGDbcL3p5gQUkJIG4H5kOp6igkhJYKMIIaGhuYsKPI6eX2ySGcBhoar0dr5PL75f5mAJSTXxCVhzb8Scz2MKRzhbk34LyMTQu5hUglAeD1uMY+763F/JRQTQkoEUwDC66kW8zx3PQ6KCSH3OGbjD69nurgkW5dQTAgpAcIiYC6pSHZu3HUUE0JKhLAguLj745YwyfZLKCaElBimWCQTBpdszs2jmMjaHGkE/TyUNzQhpCAIC4a5ZAMtCAghVmA3hxBiBYoJIcQKFBNCiBUoJoQQK1BMCCFWoJgQQqxAMSGEWIFiQgixAsWEEGIFigkhxAoUE0KIFSgmhBArUEwIIVagmBBCrEAxIYRYgWJCCLEA8P8BS7loZz2A4FMAAAAASUVORK5CYII=;" vertex="1" parent="1">
          <mxGeometry x="-57.5" y="830" width="275" height="361" as="geometry" />
        </mxCell>
        <mxCell id="dAfgAvByTWpaN4ClfMxR-56" style="edgeStyle=orthogonalEdgeStyle;rounded=0;orthogonalLoop=1;jettySize=auto;html=1;" edge="1" parent="1" source="dAfgAvByTWpaN4ClfMxR-53" target="dAfgAvByTWpaN4ClfMxR-55">
          <mxGeometry relative="1" as="geometry" />
        </mxCell>
        <mxCell id="dAfgAvByTWpaN4ClfMxR-53" value="post item" style="whiteSpace=wrap;html=1;" vertex="1" parent="1">
          <mxGeometry x="370" y="720" width="120" height="60" as="geometry" />
        </mxCell>
        <mxCell id="dAfgAvByTWpaN4ClfMxR-55" value="" style="shape=image;verticalLabelPosition=bottom;labelBackgroundColor=default;verticalAlign=top;aspect=fixed;imageAspect=0;image=data:image/png,iVBORw0KGgoAAAANSUhEUgAAAR0AAABoCAYAAADM8iS9AAAAAXNSR0IArs4c6QAAAARnQU1BAACxjwv8YQUAAAAJcEhZcwAADsMAAA7DAcdvqGQAAA6vSURBVHhe7d1faFRXHgfwr5VSSksmakxSdlNNjV2pNmmUsqu7cVc3gQa0umw0YrctPmig0D5YiIhUloqIgfrQgmB8KLVWTAnUqhAxIdIKShFNY23pYjTabNtkok0yrA99aLvn3HvuzLl37p25dyZzk8l8P3CZ+38mwvz8nXPu+c2sJ5988jcQEYXkIfVKRBQKBh0iChWDDhGFKvd9OuX1aHllOSKYwLVjR9AzrPYTUUHKcdApQ33Lq1h06wMc6RlR+4iokOW4eVWGeZEJ3LrBgENEJtdMZ8uWLRD71Za77777DidPnlRbXqrR3LoS99msIiLFNdN56KH0CdDDDz+s1oiI/HONLufPn8e9e/fUVjJ5rKurS22lUF6KYowjyiyHiBTPjuSSkhK8+OKLxqtOBpzTp0+nDEpms+oFLJi4hg+O9IA9OkRkSTl65Qw8/gKOxhgun4fLbR24rnYRUWFL2XljBZnh4WH88MMPwQKONBwVjatilJarbSIqeGl7jGWQOXbsGI4fPx4s4BARuUg/TEVENIlyHHRGcH8ignllapOICt7sSCTyb7WeAw9w+/tH8Zd/NuHvf16GR29dxe3/qUNEVJByP+GTiEjDPh0iChWDDhGFikGHiELFoENEoZpxQad8/3Xs7b2Dl19TO3yyrjOW9oNqLxFNtrwLOrXtd/DG/u1qK6DXerD3kxNwm5UxvKcab69diPbLMbVnOirCW9u34lC12iTKQzMu07GCx4eH1Q4imlby5jkd2fzZsbJIbWkGOvD2jl1i5SBe7m1GpbEzhisHqtHVbWwADSfwxu5VKFabCQM4s7YefWpLMt5nfpe6p06/PzB+eT/e3XNUbXkrq2/Bq8vhsyi9zGTWYUX8zxzCp+9cxPtibVvTVmxYYO7VPeg7i5d6RXZWthQf/Wsuet65g2ffrMNT8mCsH4eOfo3PjTOJpoe8ezhQNq/qRlN94WVwaMQ9PehYZPOqIYr2f2yF1/ffPehsR+Mne7D4G+t9zQCEzvQZVZCgs3rtOuyc24+NnUNqj5MZlOZ8cQI7nbVCjKBTg8dEwL16/Cz2jVTgkAg+6HY5l2gKcfTKj4Y1WIxL+Dge6Hah+3IMlc+l73Ae6TmCtrYANaIXLMQ2tZqJ290y4Mi1IXx1V8SiEpfskGgKMej4sbgUxZFV2GGNbonFtamXpc97z+LTuxXY8OZWnBLLR2uDvocINFpW837nCbPpRTSNMOj4NXEJ7WsXGp3U8SWp3yd7MlBsfEcuFzFSuy6DwEM0veVd0PlxNIbiZ9a4DnundTOK8cgy1Daobb8OX8WgyHQ2ZzBUL/t0WltbUB/4A09gLClJieG/Y8BTT1eobaL8k4ezzM1O3ecjatMavZKdxE1VaqfFMYol2EfBrNErxz0t8ZExyT56JQ1Oakeyc+RKuHvRpVPZ7CA2RqeE5NErc7SLaLpiaQsiChX7dIgoVAw6RBQqBh0iChWDDhGFikGHiELFoENEoWLQIaJQ5XXQyaqgVw7Iz7O39zoagz7x7INV2TBoRcR0rPvu7e1BrdpHlEvMdKYF+UT05AcUPxIVE0uxPkcBMz1WRCwkDDqTqG+HnAjqUsdnEuS6IqK8/5mBIjy/ifWhKbfybBpE8hwpWwU/2/yrdPOuXOZOOeZvJe5tvm9J90LceO4O1hunaPe3VSZ0ViOU174OHO5CyW5r7lbiHNkkM+9nl3jvFBURFfs99HPktStw40AUddbnk7PlPYqYGf8+z9xIWeTMUr25FS8svItzbR1IXyMsi4qI1XU49cefcOg00GIUKRNc56RRvsirTKe2XQSc0Y54aYkzA+qAJL/4TaXiC6fKTnRG8fxurZ9CHN+8Miq+7Oq4WJIDjna9WJzVCSubzKqF8pgtK+jeinflNQcuYdzc4yDO3S2rGZr3PTNQhfXqFyfM7Gg/rkyYQTD5vXfhQ2NfBwbVHp0MFOvnJ8putF+G/e+GeK/dpbho3SOyCg0ezbgn5ouoMDqUNuAEtXrtaqwYE4HCKNlhlu2wJqWapTzO4qqIL7e7reOOOkBFNdhpTGYVx47348GCGrxVpo5R3smfoCOCRl2VyBA8atiU/20ZcPm9RBZwuEN8kauwzPYFc25bRDbSUCWyC+16NwMd8WDQ96WIePMrfJfYGOxMZChBr/V2EA0icxsUQc8KFMN73nP83TLzsTKvXbgh3nrO7+yd72YHuMyWvP99na5/3IY2X1mOklVFRFmCVQWqkSF8GyvCHAadvDVj+nTk/9LFK/eokRi5OEpVyGykc8DIVozjtp+iqUKJOHfse3tm4zT4pfaFPFyPt300QzxFSvGEWs1ODPduqtUsmFmWvUj9ZMm6ImJsEJ8ZJVilGPYdZd3nfDajOpJlP4jVPLEWWxNKBgq1/8zoKuyIB54B3BPNm1BNRPGjWs1OEUoWq1WDGUCDkE28XHVQW1gRkSz5E3S6hzCmNY+MvgytA1Y2WYpXvu57yFdWIEw4ir5vYiILCuNZlYN4uUk05b65oGVJRzE8Cl+F3u3M5lKlaHpaWVv5/kZUTlxCt+8gIjubReYX8FdNZUdya2szgo9ysyJiocuv0St9dGmgA+2jjdiM9xKdrknVAxOjRM6RK/2YxXmO2+iVW0aQfG/Jun+aEbc4e2XC+DlJf5NkH8Wyj17pf5e8p/3neOS59p/wUe9rq5KYnv/RqywrIlqjV/z9rhmDlQNzLnXAIio0M6pPh4imPwYdIgoVm1dEFCpmOkQUKgYdIgoVgw4RhYpBh4hClddBRz7oNp0qB2ZMzpBXc8amopDXtCB/FlnOzWriU8kzXV6PXiU/XZshl6d+3Z8aTkHeoyHqqxaNJxl8dq8Cgr53WvanfQ2x/mBP+Wb6W+nyieIGt0CSqKljMO5fg8dYK2fGY/MqTk4fUBNFD1wCVu4JP4tSM+GLVzbnZA5Yol7NWVxFDXZuX4rV6ljOXLfq6Jg1c+T0Bmvipy14jXyNl+R+BpwZb+ZUDkzKNJLnHdnnSGlzlIxMB/a5WEn77HOj5NwvY66Syk7MqoE6fQ6U43Onmudk3G8ZbrpUCHQqq2/Bq8uBa8eOoCdlemVmOhBBJ1ESwrnPkQ3FMw6XLMkga9ycxT5VcmL12nXYWWv92zqyGIM5B2vJLTWnSqNXD4zPuTLI916Isb4IVoh7P+i7iG8X1WFFkf7ejrldzJQy8ttv3mFg1qxZam1y5FWmk7JyYDoiiOzQKgcahchtNXUcbkYxjlKUq1nrte0rcENda1Tgq2o2+1+sqoEiQzFKgcbPSQQw++fejyvzm72zqMWlIoBFMZwm4GTPnO1dVmJ+W7c1LcRXRgZiZiG3F9SpQulD2Cn3yYp9RjCxzkkEHNmE2lk7ET92SASJDQGyKKvsxad31Q6bCqyY24+N3UN4rLYOc76Q5xVhyVLrc4uAE69KKLKpOXUsm+GDDDL6kkqQc/3In6AjMoBUlQPTqX2uCoOdiUAwvKcLg5FlqPUqhWGU0kjo26FlQR4V+NwdxDLb5z4qMhjRhHpmjT3gycxKdiY32T9nKiM9R9DWli7L8WKWk7C836lnJkP4SgQAKyCls+3pCtF0S1z/eW8/bhdV4q+TUt1PZDUXVeYS68cp25T2Cjy7QATCeGYTw74vRHBaVJH7ZmOe8gocelBxLk5e+/0qkD6d7Sifb9Y4TlQW1JpKbhoqMEetGqygoBa3YuqujPtUYb12bXKpCkU2u0Q2FM5s9CL8Xv8DZYevquwnF7di6e7M+zzVkLj2lGtzLAfKilAmAo9VkdBYXDutSbICRWVlJTZs2IDNmzfHl+bmZs9FP09eJ6+XMg08BdWRrBc+NxfvfhNZcznezJH9LEYGkrg2UNNO76S2Fucol6xqmGEWl5GyCiwRiczIPdnGWoqPxJdVL4zu3tTxpl9rNXXiza+c0pt8amHtnSR6gKiursYjjzyitoKR18nrLZkEnvwJOmkqBxridYdlx62eyQSsDGj0/xQ5mjlaLWJxPOm9ZR+QW3Ot+wJuTiR+/cGLWRw9WOVC2ZHc2tqCes+OKS8VOKSGpxMdyzGMaX00SZnOSAwjsjmTVCowhs9uxUSmU5dF4fUMGUXaRabDZ3t8k0Ei04BjkddnmuVIM6pyoF5Bb7CzA2hKNXolWL8Bpd/XkPz7Uvq95XVXRldhseMZIc/RsVSjbop5f/2a9IKOXulNHvsokeP3p2L9uDpWgyU/OUaabM/cpBq9EpKeA/IavXIfHTM/X0Qcq8GYfJ+yRAXBReKz1sc/W3JlQuffVuisAGG9yiZTtjo6xPdLsEa2goxwsbQF0Qw33YJOQfXpEBW6bJpFumzuw0yHaIbTMx25bNmyxdiWGhsbUV6eulNweHgYXV1dast08uRJI7thpkNENnrAceMnWMyePVutJUt3fzeTluls2rRJrRHRdCADgVx+/fVXY/nll1+M5fHHH1dnAMXFxVizZo3x6mZ8fBwXLlwwXnVWpiMFzXaY6RAVMK+gIqU6lg326RDNYM7mj3zV+3QszownXcBhpkNEWbGCzP379xGNRnOS4VhCzXTMh9kiwMQ1fHCkB6E8JU9UwPxmOkHlTaZjzopuw7mx5dhYPylTkIkoz0xJ8+r6f+4iMpdBhyjXgmYhQWVyf/bpEBWYn3/+Wa1lJtvrGXSICojMSPr7+zMOHPI6eX02mdPUDJmX16PllXm43NYBWyE4Ipp0bp3J+qukrzvpAcbZnHK++jF1z+kYgWc5InfOoe1jhh6iXMo04Fj8BB6/pibo1DSj9U/3OWxOFBKvIOMn4FjcAo8UNOhMXZ/OWJQBhygkqQKG38Xite4XO5KJCoQzWOhLKl7nprvOC4MOUQFxBg6Ltd9tcfLa79eUBJ3qPyzAxE9sXBFNFT2opAsgQc71Y2rmXuEuznG4nKggTd2QOREVJPbpEFGoGHSIKFQMOkQUKgYdIgoVgw4RhYpBh4hCxaBDRKFi0CGiUDHoEFGoGHSIKFQMOkQUKgYdIgoVgw4RhYpBh4hCBPwfuYZU8IyHQSgAAAAASUVORK5CYII=;" vertex="1" parent="1">
          <mxGeometry x="287.5" y="830" width="285" height="104" as="geometry" />
        </mxCell>
        <mxCell id="dAfgAvByTWpaN4ClfMxR-60" style="edgeStyle=orthogonalEdgeStyle;rounded=0;orthogonalLoop=1;jettySize=auto;html=1;" edge="1" parent="1" source="dAfgAvByTWpaN4ClfMxR-57" target="dAfgAvByTWpaN4ClfMxR-59">
          <mxGeometry relative="1" as="geometry" />
        </mxCell>
        <mxCell id="dAfgAvByTWpaN4ClfMxR-57" value="put item" style="whiteSpace=wrap;html=1;" vertex="1" parent="1">
          <mxGeometry x="748" y="720" width="120" height="60" as="geometry" />
        </mxCell>
        <mxCell id="dAfgAvByTWpaN4ClfMxR-59" value="" style="shape=image;verticalLabelPosition=bottom;labelBackgroundColor=default;verticalAlign=top;aspect=fixed;imageAspect=0;image=data:image/png,iVBORw0KGgoAAAANSUhEUgAAASgAAAB7CAYAAADHah30AAAAAXNSR0IArs4c6QAAAARnQU1BAACxjwv8YQUAAAAJcEhZcwAADsMAAA7DAcdvqGQAABP+SURBVHhe7Z1vaBVnvse/tpSyWHISqybLbuq/2FuqTZqG0mvvjbt6E1ihVpebGnHbLn2hQqH7wkJEZOVSkdLA+mIFwfiitLXFFGHbKkSaoLsKSik2G+uW3uufaN3tJvFPzGF90Rdt7/ObeWbOM3POnDNzzpmTOfH7gSHz58zMOXMy3/P7/Z7n+c6stra2H0EIIQnkPv2XEEISBwWKEJJYKFCEkMQy65FHHmENihCSSBhBEUISCwWKEJJYKFCEkMRCgSKEJJZ4iuQNHdj68lNIYQpfvHsAQ2N6PSGERCAGgapHx9bfYsnld3BgaFyvI4SQ6MSQ4tXj4dQULl+gOBFCSsONoDZu3Ag1b60M4ptvvsHhw4f1UhDN6O5ZgVtM7QghJeJGUPfdVziYeuCBB/QcIYTEj6tKn376KW7evKmXspFtAwMDeikPDfNRizuYYPRECCkRT5F87ty5eP75562/JiJOn3zySV4Bs1O7X2HB1Bd458AQWIEihJRKViueX6TCiZOB1cXgYZzt7cd5vYoQQoohq/DkCNLY2Bi+/fbbaOIkjE2oBK8W8xv0MiGEFEnOyrgI0rvvvotDhw5FEydCCCkjhZvuCCFkmohBoMZxayqFh+v1IiGEFMn9qVTqf/R8mbiLK//4Cf7zv7vwX/+xHD+5fA5X/qU3EUJIBOIZLEwIIWWANShCSGKhQBFCEgsFihCSWChQhJDEMiOK5A17zmPLihqMHlmI9/brlSFw9rO41I83tmy350PS2ncVa5vUzNQZ9P16Ezg+mpDyUhURlAjB7/Zs1ksReXUIu/70AXKNvBnb2Yw3Vi9E39m0XhON4S0Lrf2P3ngWW04MoVWvryj1y/D+6+14RS8SMpOYESmeIzRRoqdyMrxlDz6fakJ7sSJKCMlJolM8Twpm4qZjb+GlE91YZK1M4/M3mzEwaC0AnR/gdzueRa1ezHAJR1d3YFgvCdZ55g3kSPHM4wN3zu7BH3ce1EterHQPYdJEbUtz9Th6Pwzj99CIvSpCWqyXkB7B3oN/wyn/epc0zh06ht3id9Pcjo+euY29nwBbX2zBbNl87TTWH7kuc4QknqqoQcnN334jWBxsIVmDm6ZAOUiK1zmRt0aUW6A2Y82fdmLpV855bbFCzjqX/7X5iCZQr3RtQsftY/jNiYA0VFK8F+dg6A+n8bZe5SIC1dmoZq7jY9luvXYRvnYEjJCEw1a8IDpXYSnO4ENXcLZj8Gwai558Sy8LIkxXsevETjzteW0+zqO/tzdk9GQze0kjVur56EhEpcVr/Dq+TtegjuMkSZVAgQpi6XzUpqT4LQJkTznTTSu1XIg3YmrFe/vIMZxDC7a9vgkfqWlvs94QlvQo/uJGS2nsPvgBttFJkFQJFKh8SPeB1XZLnTt50sCDGPh1jrSyrNiisv4Pajo0gvrOIkSKkCqlKgTqnzfSqH18Vc6uAgW5OIE7qeVo7dTLYdl/DqMqgtqQr2VOCvEqsorWBUJqUD3o2VCEyoyns73erXWNeIKiRWYgVdJR0y5CP53Si04rnhTAu6SnpImvNU/hbQ10WvF8x3TwdNj0tuIJns6guqUQeVr3solSJM9uqbs7nKNg7hbDhRyteFarHyHVB+1WCCGJhTUoQkhioUARQhILBYoQklgoUISQxEKBIoQkFgoUISSxUKAIIYml6gSqJPO6GJD3s+vEeayJ2lM9BNLBVMYAvvSqXlEmnOPumi6TPUJCwghq2rCdEMotPmHIOInOx9qYxLUwNfj9Zo4rJPmhQJWIbfsbz4DhuJ1C5fhHL9Xg6RdMCxlCkkMVDHXJHjPncbb0jMcrNA7PN5ZO8I3nyxzbPu/cwYW48KR+OIJ5fI9jp9+lU/Z9Ddg/gLk7nLF8mddY7pv+IYSKzLnzOIVqvMcwXyP7tuHCmxNod95fnoc6WNfn8QuhHvrQvKEHv1p4Dcd7+1HYsUUipOfQ5l56bZqn5sSEb90Ce62JO86QTqBEk/gIqrVPidONftfu5OglvUEQkeiar25ObYVyZAJP7zDqKmr7hhUTShj0djVli5Oxv5r8g34XddlunrLNE20MbsIfZZ83z+COvcaHeu0Ocfm0j3v0UhPW9tn72lGX+Jjbgpl97u14z1rXj1G9xkREZe28jBVM31l4PzfUuXbMx2nnGKln0RmQSv50nlKQG9fL7mW1cvVKtE0qURGbGGvKOH6+fUSWj+Gc0qIrg872D7yDoGtasM1yClXbDo3g7oIW/J5Ge/ccyRYoJTDtTSryCPD5bvjlcuDsvkx0sb/fenjBcs/N6F92UFFOZ5OKWoz9c3Gp3xWO4b8qdZzXGNr2ZfRIJvKJum8wb6FTRYSjSiAdURnbuc/3uSWiciK67bigTl33M2/Dgl3clygs+Pr6Of9hL3pDRU+aBQtLeNoMnUBJldeg5Ne/dsVO3SIlk88+RaKcI5esKMja7nn8VBPmqtdO/sMbMfkZ/atx8+7vKM05MzUfP9WzpZHGzYt6tgTs6M37AIlycerEMXx8rRHrtBPo+6tzuZHmgU6gRFH1RXKp2zgpkjN50jgRFb3een6dK1KXcFOlWBVlagL/1LOlUYO5S/WshS22UZA0M67iu4Odysl0GuOtz0UXKXLPk2yBGryOSSNFs2ovRnFZ0qbaFa+FbiYXZ84MBzH8VVpFV5XoC/QWXupS6eRXJ43o6yDGbsD3EIYw2CnbIpX+OtFgw541WDR1BoOhBUcK6Sqi1DWxsEiRvKenG9F7Bkxh0uexJ1HR3yeBxY86RnuEZJP8Vjyzle1SP/purMEG7MsUlLNcNTOtZf4WPHObg/81uVrxckUa2ccWnOMXaHl08Tp2uq/J+kyCtzXP24pnfi45pvcRXPJa72O79Hk97qGFCd+K52/BU+RshfM6hma14tEJ9J6HjpqxkF/cCCHhqPoaFCFk5kKBIoQkFqZ4hJDEwgiKEJJYKFCEkMRCgSKEJBYKFCEksVCgYkP31lZTkhxAY0M6V25ehpV6sWqoX4b3X2+PNqjZ2mcTPupKcC/4av0+fFS/QInlSgnWtdLLOh4ByVimTMqA5ojDSioDXS1JsmEEFTtKqMQzqmnNNFnrkrIz/jf8RgZB00AvdqrQUdMZd+Ydx5bBO2bNO2Yusy33WDqFOz6t8Jg2/zGy3Dpd7PeKwO0GDR3Y+vJTwBfv4MCQ6zeSGwnjH72KvbdbsK3Vfh/ueDaN171SPJaOYbc6bEFXyxCsXP2ce16L9Igxfs47zi5720J8eeg2OhzHTM92/7EzbpxlQa5bp5meeY8fdM0Ec1vWtYr8fdhEueb5iPP78F4z7zWJk8RHUA17XvM4amb8i3QKZTlaimg52zOCIulfJ/a5+1rOk6/aLgCO37c4dHosW8IOni3k1mmivtg69aWWw8MpiwXt2DZnxLY1GbyO2a0tbj1F/mHX1al/NNmmpr3qwrW9aNdbQrla5kP9w25rnVI3tt5XnTuDpI7tqFc3nn1cdR6om9ZTs2nEOscxU4nDlZoWrHdSTd+x9w6nsK5c9RSpH3Wm1A2m37e4depNQr5rJjgWMh9f0yv85Pk+5HOtWyBiKMewr70Moi6HOMX6ffiv2eCU55rESXWkeE1txdWYBjfhPcNBYOzPF3CnbKZxQpBbp8aqj13Frh3Pep0/8zE2hAO9vYWjJwf5pXNSjfNXcQUp/NxynmzEevVreuWzzK/gqROn1E3RiCdKrjmpf/hnGpWwBUQ1zS1oq7mOIffGS2P3J2LbazpsGo6ZKoL5Ut3w9XPtX/9XHvUe+9SJEXXDLMIvyuCo+Up7CzB8KuDXvwzXLPD7sD8Xrl3VnyuNv1xW16eupgzCG+/3sXKZylPMa3Z+pEz/R4VJvEDZTx5pwtqiWsQkPbT3syb3IQdlIK9bp4E8sEBFV9lWK5UgjckKhOE5Sd/GZT0bjRr8vA5Y3Gk7cdqTkZrETnzX7PJtJRCuKNTgF0tqcPfy9UwaFSdFfx/Akjk1KhJ8zvg+fFY6MVIVEZT9kAGZ7BaxsCJlPXABmYcLBD/goEgC3To1ImKlWASXjN/HOyU/2JWhZg6W6FmL+jl2bSMkZtrppCWVqHnEec1OWRaujg2yuskxggPlSO/CUOL3IXUy7/dRGQvmKmvFy2HT63PdzMJ9YomKpl7NjqDEZbP28VW5ox/1z+pY60pBPNejohy8bp02sk/kpw5LkbynB1s7Ss1n7DB98TOZ2s3K1S1YrFKQj9x/rGJdLX37WTUK4xhWatOIDtfi105B7g6P5E5BPNipz+LOAjUOpy9SxNqURDGzlzTqfRqx1ykKW4S5ZsXipGHGTW4WoR2K+lxxfh/A2/8ntbSV0/JUnYS34mU7U2Za2Qw8DpRGK57UgIy0bvTsGdStkMcxma6avnOYx/e5eR5Ft9uKl90KGOTWCU+rYkGituJ5nCelNaYFkwGtTv7WKhtv6074FiVzP3VcaQF6HjgQ1GrkcdTM/T47bmfOnb9FSlA3meXaGbWFz9lP5qXuMoK6Fxfiy8BWPPP4vs+kca9Zoe9DtntaDxVl+1zxfh/Z7z3q+ysO2q2QqsUSEmlx89zgScUWnrrPzNTIXvfYZe+PQnV9rnipshSPEIX8mqs0qLpu4hy1rPpGPKbWjd80opSq+1zxwgiKkEqRI8WTmhSf9xcMBYoQkliY4hFCEgsFihCSWChQhJDEQoEihCSWqhOo+AzmKowzkFhNL+UbcDyTcXpNJ9mZkkwrVdeK5/dkKhpP73MbsV2JdFw5RucE+koZb6d7uyPquQuSo9dzVq/lAoiAWBYcEXsM5+oxbeHrfWwdvwWzPb2aCclwj6d4ho/Um2eACAORy4Z2Rahd0V20bXE+MmO/tAdQJXyqzyvBcc6ZNgea+oSOzpSkAFUQQWWPx3MjnawIJtsF0ztmzhgvZ0VQ8I6fy1rnc+10xun5xvhlMMfj5Rnj58c63nJcDDFmr75jK34rQ/XePYChvGGbHUHB0xHQvy5ofFaO6MvC66RY2PUy91AOwRzv5h3/J+deiMnhFNrUse8On8bXS9rRVmOe2xxPp2AEVhQ//hh868+aNUvPTS+Jj6AsyxTDUVMcMEOjBGeL4XrZd3Y+1gb5NgkXJ3AH89Gg3Qda+9pwQe8rVi+jTd12vUiiHlmnIh/H78l+TUbsvO97Dz6f1x0cnS2dr8RuAmNhBxQXzRQmlQ64xnBdMkjWibBO48qCdv0AhevYJusst0kRHuc1GXGSNK4U18v8zpSNaBNXSsuRst0av/bxtRo8tsx530qcJo0ora4d77sj9UkQIkjmlI8or42TZAuUiizam1RUEtaG10frk00YPZIRjbGdAxhNLUdrkP2JZd2SYXiLEV1hOy4oPar7WZgU8C0s97zvgyoyUmmc39ZFIjYplHd532c+xocOoLe3UPQUhG3L4fD2ETPi8booFiJO10srUjutI6Isq5NGPCG2uW7ElMbuz5SQuRYqxE+QyJgC5J/8BK2Pmxlcg9qMhnnIOF5aU66HLBh0ine4gSMgesrnB+XBOk7GBdSafAV5F0n9VJRV8GEKZcF2q3TRg1OdyW/mH8w0ul7W16BeiZRt+qannAV5IjiismjRIqxbtw4bNmxwp+7u7sDJfJ3sJ/sLlRapGV8klyet2GmWMwXXeRp+uTyTakldyIpsMvtGSi/NArwz+Vv7xJGzyOiwKMzR89rUzDRQC3wQQADT53pppp164uj/LEwxaW5uxoMPPqiXoiH7yf4OlRSpZAuUzy0zp6ul+xAEKUqbEdJBDH+VVhFUyId6WvWqGl+qZTyJRW3POrfUrHKljIMncXFKRVAFHtYpXSZ2RXzoqBTJe3q2oiOwkBZEo+0eee20UTQ3/LdVNJUVQY2nMS4pVZY5fkjXyzgYv46v0yqCYt+p0IigFCtODrJ/paMnIfmteJJmGa6WfTfWYAP2uX2G5CZ3hGP0SD/Qla8VTyFFbYlkzONaeJ+nJ5jHlv0+v/Eslvr6YAW2EuZrfdTYxzf3KUzUVjwz7fK7ZXqcI9MjODfZgsdMF0XB06cpXyueIsAdMrsVL3crof3+UmqbdnesV+fWDpVLPA6PvlY8hf+z3es4YuL8lbStVPr71f2lcFr4KtHSR7sVQmYgM0WgZnwNipB7nXKlZuU6ThQYQREyAzEjKJk2btxoLQtr1qxBQ0P+IubY2BgGBgb0ks3hw4etqIkRFCGkaExxykUYYbn//vv1XDaFjl9OSoqgXnjhBT1HCEkCIhoy/fDDD9b0/fffW9NDDz2kXwHU1tZi1apV1t9c3LlzBydPnrT+mjgRlFCpKIoRFCH3GEECJOTbNh2wBkXIDMOfgslfswbl4I+kCokTIyhCSMVwBOnWrVuYmJhIVOTkEHsEZXcsTAFTX+CdA0OoyEgIQu5hwkZQUZmREZQ9+r4XxyefwvqOsgx1J4TcI1QsxTv/v9eQmkOBIiRu4o5uKhU9CaxBEXIP8N133+m54ih1/2KhQBEyw5FIZ2RkpGiRkf1k/0pETH4q182goQNbX34YZ3v74TFIJISUnVyFcvOvYM77McXIn9L5/8ZJZftBWSL1FFJXj6P3Q8oUIXFSrDg5hBGpuKmcQLV0o+ffb7GrASEVIkiQwoiTQy6REiolUJWtQU1OUJwIqRD5xCXs5BA0HzcskhMyg/ELiznlI+i1hfYrNxQoQmY4fpFxcNbnmvwErY+biglU878twNRtJniETBemABUSmyivjZPKjcXDNRxnFwNCSAQq282AEEIiwBoUISSxUKAIIYmFAkUISSwUKEJIYqFAEUISCwWKEJJYKFCEkMRCgSKEJBYKFCEksVCgCCEJBfh/PVABqcqRJCUAAAAASUVORK5CYII=;" vertex="1" parent="1">
          <mxGeometry x="660" y="830" width="296" height="123" as="geometry" />
        </mxCell>
      </root>
    </mxGraphModel>
  </diagram>
</mxfile>
